<svg width="100" height="100" viewBox="0 0 100 100" fill="none" xmlns="http://www.w3.org/2000/svg">
<path d="M45.6131 80.5084C37.0078 80.1746 24.8202 79.5629 20.6001 79.7587C19.7806 79.7967 19.0521 80.3584 18.7145 81.2074C16.7631 86.1129 14.0785 89.1605 10.4397 89.71C12.1987 87.6123 12.2719 82.6005 11.4335 79.6898C10.9068 77.8616 10.4739 77.8193 9.41908 76.9915C2.29376 71.3998 0.0670878 64.9477 0.472015 58.3631C1.10824 48.0149 9.88615 57.4542 19.0786 56.7744L47.208 54.8576C57.9826 54.0636 62.6183 43.8938 64.2451 53.3304C66.437 66.0478 60.2714 81.2351 45.6131 80.5084Z" fill="#FFD0D2"/>
<path d="M46.215 76.9907C38.285 77.0144 25.468 76.6028 21.2293 76.3861C9.0031 75.7594 0.0539081 67.1535 0.472077 58.3634C0.933387 48.6641 7.79323 39.7254 17.2537 39.0251L45.6157 36.6111C56.3912 35.8169 62.6299 43.8804 64.2449 53.3304C66.072 64.0217 59.9813 76.9505 46.215 76.9907Z" fill="#FFE6E7"/>
<path d="M81.2514 49.3014C72.9798 49.0052 61.2653 48.4621 57.2088 48.6359C56.4211 48.6697 55.7208 49.1684 55.3962 49.9218C53.5204 54.2761 50.9401 56.9809 47.4425 57.4689C49.0771 55.6688 49.1972 51.4508 48.4749 48.838C47.9589 46.9714 47.4367 46.884 46.5107 46.2155C39.6226 41.2441 37.4713 35.5035 37.8613 29.6449C38.473 20.4595 46.9103 28.838 55.746 28.2347L82.7841 26.5334C93.1408 25.8286 97.5967 16.8019 99.16 25.1777C101.267 36.4661 95.3407 49.9466 81.2514 49.3014Z" fill="#FF9799"/>
<path d="M81.8293 46.179C74.2071 46.2002 61.8873 45.8348 57.813 45.6423C46.0612 45.0862 37.4592 37.4475 37.8612 29.6451C38.3048 21.0359 44.8983 13.1018 53.9919 12.4803L81.2536 10.3378C91.6108 9.63283 97.6076 16.7902 99.1599 25.1781C100.916 34.6676 95.0617 46.1434 81.8293 46.179Z" fill="#FFBBBC"/>
<path d="M75.0837 17.4614C69.2138 14.7442 62.4308 17.2397 59.9357 23.0371C57.4406 28.8344 60.1785 35.7374 66.0485 38.4547C71.9197 41.1725 78.7029 38.677 81.198 32.8796C83.6929 27.0823 80.955 20.1793 75.0837 17.4614Z" fill="#FFDDDE"/>
<path d="M70.4741 19.6232C66.0583 19.7985 62.6598 23.5138 62.884 27.9203C63.1083 32.3284 66.8705 35.7592 71.2863 35.5839C75.7035 35.4083 79.1021 31.6933 78.8778 27.285C78.6536 22.8784 74.8913 19.4476 70.4741 19.6232Z" fill="#FFDDDE"/>
<path d="M42.209 53.5284C34.7977 53.0874 15.3787 53.7349 11.1964 54.5625C10.9651 54.6082 10.8145 54.8331 10.8602 55.0644C10.9059 55.2953 11.1302 55.4465 11.3621 55.4006C15.5043 54.5809 34.7879 53.9421 42.1582 54.3814C42.3922 54.3946 42.5958 54.2159 42.6099 53.9803C42.624 53.7447 42.4446 53.5425 42.209 53.5284Z" fill="#D6585B"/>
<path d="M43.0227 49.1346C35.636 48.6797 16.1604 49.3238 11.9195 50.1632C11.6882 50.2089 11.5377 50.4337 11.5834 50.665C11.6291 50.8959 11.8533 51.0469 12.0853 51.0012C16.2857 50.17 35.6247 49.5353 42.9702 49.9872C43.2049 50.003 43.4082 49.8225 43.4227 49.5872C43.4372 49.3518 43.258 49.1491 43.0227 49.1346Z" fill="#D6585B"/>
<path d="M35.2077 62.6538C31.271 62.0656 14.1517 62.5788 10.4542 63.3957C10.2239 63.4466 10.0783 63.6747 10.1293 63.9051C10.1797 64.133 10.4051 64.281 10.6387 64.2299C14.178 63.4481 31.3114 62.9353 35.0817 63.4987C35.3154 63.5343 35.5323 63.3727 35.5672 63.1392C35.602 62.9058 35.4409 62.6886 35.2077 62.6538Z" fill="#D6585B"/>
<path d="M10.9993 59.8144C12.8587 59.4037 19.2318 59 25.824 58.8755C26.0598 58.871 26.2475 58.6762 26.243 58.4405C26.2386 58.2047 26.0442 58.0097 25.808 58.0214C20.0194 58.1308 13.0107 58.4951 10.815 58.9802C10.5848 59.031 10.4391 59.2591 10.4902 59.4895C10.5406 59.7172 10.7657 59.8652 10.9993 59.8144Z" fill="#D6585B"/>
<path d="M81.2221 9.91154L53.9647 12.0536C44.7554 12.6832 37.9034 20.6816 37.4376 29.6108C37.2533 31.762 37.5329 34.4186 38.382 36.7965C37.7729 36.8478 26.3594 37.8199 17.2241 38.5982C7.45634 39.3215 0.516619 48.5283 0.0471934 58.3358C0.0469798 58.3377 0.0469798 58.3388 0.0467663 58.3407V58.3424C0.0467663 58.3424 0.0467663 58.3435 0.0467663 58.3442C-0.396604 65.6102 2.30911 71.6055 8.31169 76.6396C10.3066 78.3127 10.6859 77.9912 11.2295 80.6431C11.8416 83.6288 11.5432 87.7304 10.1134 89.436C9.86284 89.735 10.1138 90.1918 10.5046 90.1327C14.1195 89.5853 17.0159 86.635 19.1134 81.3639C19.3906 80.6671 19.9689 80.2154 20.622 80.1846C24.8473 79.9871 37.5066 80.6214 45.5943 80.9342C59.746 81.6375 66.7389 67.6852 64.7508 53.7686C64.5058 52.1553 64.1278 50.5871 63.6264 49.0968C69.1704 49.2365 76.5315 49.5586 81.2343 49.7275C106.364 50.8778 106.15 8.21068 81.2221 9.91154ZM63.9057 53.8949C64.7989 59.9876 63.0463 66.4508 59.3317 70.7626C56.0763 74.5413 51.5409 76.5471 46.2162 76.5631C39.1616 76.5862 27.994 76.2545 22.6672 76.0249C22.4318 76.0145 22.2321 76.1975 22.2221 76.4333C22.2118 76.669 22.3949 76.8683 22.6304 76.8783C28.7748 77.143 39.6778 77.4364 46.2185 77.4172C54.2932 77.393 60.4726 72.9478 63.3673 65.629C61.0646 74.5526 54.7816 80.537 45.6316 80.0808C37.2057 79.7545 24.8182 79.1347 20.5819 79.3312C19.5892 79.3777 18.7221 80.0355 18.3191 81.0481C16.5441 85.5089 14.2085 88.1994 11.3666 89.064C12.5436 86.7534 12.5653 83.0031 12.062 80.4716C11.4631 77.4603 10.7895 77.6158 8.77577 75.9136C5.05326 72.7673 2.6632 69.2368 1.56268 65.2429C3.15335 68.4543 5.92078 71.349 9.56811 73.4548C9.77165 73.5725 10.0333 73.5035 10.1516 73.2985C10.2695 73.0941 10.1996 72.8329 9.99525 72.715C4.1253 69.3257 0.640062 63.8342 0.899762 58.383C1.3741 48.4117 8.57203 40.0953 17.2916 39.4495C22.2262 39.0292 38.4205 37.6499 38.7084 37.6256C40.0163 40.7424 42.3388 43.5863 45.6272 46.0902C47.1939 47.2832 47.8355 47.1773 48.2893 49.9998C48.6656 52.3392 48.4935 55.6784 47.1275 57.1804C46.8595 57.4749 47.107 57.9452 47.5023 57.891C50.9854 57.4066 53.7744 54.7816 55.7909 50.0897C56.0534 49.4825 56.6042 49.0885 57.2282 49.0614C58.4302 49.0095 60.3799 49.0233 62.7138 49.0752C63.2503 50.6059 63.6522 52.2256 63.9057 53.8949ZM81.2689 48.8743C75.7646 48.6765 61.4588 48.0236 57.1915 48.2079C56.2371 48.2494 55.3999 48.8405 55.0065 49.7518C53.3223 53.6704 51.1037 56.0453 48.401 56.8287C49.4018 54.9414 49.4797 52.1105 49.1558 49.9968C48.6451 46.666 47.7255 46.6151 46.1346 45.4029C42.9035 42.9407 40.2051 39.8177 38.9856 35.9055C40.6845 38.9869 43.6875 41.7319 47.598 43.5867C47.8107 43.688 48.0657 43.5968 48.1669 43.3838C48.2679 43.1707 48.1772 42.9159 47.964 42.8147C41.8258 39.9031 38.0286 34.742 38.2902 29.6665C38.7449 20.8399 45.6556 13.4779 54.0275 12.9056L81.2849 10.7635C90.8302 10.1136 96.088 16.1296 98.1206 22.7221C100.106 29.1601 98.707 35.5023 95.0501 39.9101C92.8478 42.5646 88.7667 45.7327 81.8306 45.7515C75.1305 45.7722 64.7136 45.4892 59.4549 45.284C59.2221 45.2765 59.0207 45.4584 59.0116 45.694C59.0022 45.9298 59.1858 46.1284 59.4216 46.1376C65.3904 46.3706 75.6187 46.6241 81.8331 46.6057C89.615 46.5848 95.3241 42.6487 98.1347 36.603C95.7619 44.3507 89.7579 49.2585 81.2689 48.8743Z" fill="#D6585B"/>
<path d="M65.8708 38.8419C71.9902 41.6744 79.0105 39.0465 81.5919 33.0479C84.1735 27.0494 81.3354 19.8831 75.2649 17.0732C69.0966 14.2177 62.1041 16.9215 59.5451 22.8677C56.9635 28.8662 59.8012 36.0321 65.8708 38.8419ZM60.3295 23.2054C62.7053 17.6857 69.1871 15.201 74.9061 17.8484C80.5603 20.4659 83.2075 27.1329 80.8072 32.7103C78.4402 38.2095 71.9674 40.7223 66.2294 38.0666C60.576 35.4495 57.9292 28.7827 60.3295 23.2054Z" fill="#D6585B"/>
<path d="M70.9656 36.0168C75.7638 36.0168 79.5496 32.044 79.3061 27.2628C79.0705 22.6305 75.1031 19.0113 70.459 19.1958C65.7959 19.381 62.2229 23.3006 62.4593 27.9417C62.6893 32.4619 66.4712 36.017 70.9656 36.0168ZM70.4927 20.0493C74.667 19.8859 78.241 23.1385 78.4529 27.3061C78.6652 31.4833 75.4508 34.9904 71.271 35.1565C67.0914 35.3212 63.5246 32.0662 63.3121 27.8982C63.1005 23.731 66.3066 20.2154 70.4927 20.0493Z" fill="#D6585B"/>
<path d="M67.2844 29.7575C67.2926 29.9606 67.4429 30.1299 67.6437 30.162C68.707 30.332 69.7823 30.6765 71.5172 31.2937C71.6492 31.3407 71.7952 31.3197 71.9093 31.2371C71.9996 31.1726 73.3906 29.983 75.2294 29.2586C75.4266 29.1808 75.5368 28.9705 75.4887 28.7642C75.1918 27.4921 74.9742 25.938 74.9059 24.6064C74.8975 24.415 74.7564 24.2574 74.5838 24.2141C74.3339 24.1308 73.2815 24.279 70.8376 23.3382C70.7075 23.2878 70.5614 23.3045 70.4461 23.3822C68.3207 24.8086 67.1529 25.1324 66.9737 25.3037C66.6029 25.6567 67.1309 25.9801 67.2844 29.7575ZM67.7981 26.1849L70.6838 26.8967L71.1426 30.2564C69.8962 29.8228 68.9928 29.5458 68.1221 29.379C68.0657 28.2772 67.9536 27.1737 67.7981 26.1849ZM71.984 30.103L71.5302 26.7816L74.0986 25.3334C74.1846 26.3784 74.3566 27.5739 74.5774 28.6042C73.7107 28.9807 72.8041 29.5052 71.984 30.103ZM70.7381 24.2141C71.3583 24.4454 72.1805 24.7123 73.1486 24.8881L71.0061 26.0963L68.5404 25.4882C69.4618 25.0254 70.1774 24.5844 70.7381 24.2141Z" fill="#D6585B"/>
</svg>
