<svg width="100" height="100" viewBox="0 0 100 100" fill="none" xmlns="http://www.w3.org/2000/svg">
<g clip-path="url(#clip0_19_204)">
<path d="M84.6464 48.0479L73.0621 61.6525C73.0621 55.5964 62.7038 50.6876 49.9268 50.6876C37.1498 50.6876 26.7915 55.5966 26.7915 61.6525L15.0905 48.0479C15.0905 48.0479 15.9435 37.9663 7.97363 27.8848L11.5449 26.4431C11.5449 26.4431 33.9035 59.5611 34.0609 20.5749H35.5585C35.5585 20.5749 47.2798 55.5407 64.7981 20.5749H65.6762C65.8336 59.5611 88.1897 26.4431 88.1897 26.4431L91.7635 27.8848C83.7936 37.9663 84.6464 48.0479 84.6464 48.0479Z" fill="#FF9799"/>
<path d="M80.8288 73.8154C72.1229 87.3388 26.4816 86.4251 18.8468 73.8154C18.8468 73.8154 25.4257 54.627 3.49609 42.2914L7.97348 38.4537C14.1385 45.6519 31.3372 63.5181 39.368 58.4038C45.1955 54.6955 46.655 48.4263 46.6246 48.0479H52.7975C52.7671 48.4261 54.2266 54.6953 60.0541 58.4038C68.0849 63.5181 85.2834 45.6519 91.4486 38.4537L96.1797 42.2914C74.25 54.627 80.8288 73.8154 80.8288 73.8154Z" fill="#FFBBBC"/>
<path d="M49.6906 53.8044C52.8698 53.8044 55.4471 51.2271 55.4471 48.0479C55.4471 44.8687 52.8698 42.2914 49.6906 42.2914C46.5114 42.2914 43.9341 44.8687 43.9341 48.0479C43.9341 51.2271 46.5114 53.8044 49.6906 53.8044Z" fill="#FF8487"/>
<path d="M94.6465 43.3878C97.3716 43.3878 99.5807 41.1787 99.5807 38.4537C99.5807 35.7287 97.3716 33.5196 94.6465 33.5196C91.9215 33.5196 89.7124 35.7287 89.7124 38.4537C89.7124 41.1787 91.9215 43.3878 94.6465 43.3878Z" fill="#FF8487"/>
<path d="M5.35308 43.3878C8.07813 43.3878 10.2872 41.1787 10.2872 38.4537C10.2872 35.7287 8.07813 33.5196 5.35308 33.5196C2.62803 33.5196 0.418945 35.7287 0.418945 38.4537C0.418945 41.1787 2.62803 43.3878 5.35308 43.3878Z" fill="#FF8487"/>
<path d="M89.7124 30.2561C91.8183 30.2561 93.5254 28.549 93.5254 26.4431C93.5254 24.3372 91.8183 22.6301 89.7124 22.6301C87.6066 22.6301 85.8994 24.3372 85.8994 26.4431C85.8994 28.549 87.6066 30.2561 89.7124 30.2561Z" fill="#FF8487"/>
<path d="M65.6754 22.6301C67.3868 22.6301 68.7742 21.2427 68.7742 19.5313C68.7742 17.8199 67.3868 16.4326 65.6754 16.4326C63.964 16.4326 62.5767 17.8199 62.5767 19.5313C62.5767 21.2427 63.964 22.6301 65.6754 22.6301Z" fill="#FF8487"/>
<path d="M34.0602 22.6301C35.7716 22.6301 37.159 21.2427 37.159 19.5313C37.159 17.8199 35.7716 16.4326 34.0602 16.4326C32.3488 16.4326 30.9614 17.8199 30.9614 19.5313C30.9614 21.2427 32.3488 22.6301 34.0602 22.6301Z" fill="#FF8487"/>
<path d="M10.2871 30.2561C12.393 30.2561 14.1001 28.549 14.1001 26.4431C14.1001 24.3372 12.393 22.6301 10.2871 22.6301C8.18126 22.6301 6.47412 24.3372 6.47412 26.4431C6.47412 28.549 8.18126 30.2561 10.2871 30.2561Z" fill="#FF8487"/>
<path d="M94.6468 33.1026C91.0173 33.1026 88.4811 36.6154 89.5245 40.0167C88.5694 41.0808 87.0541 42.727 85.1873 44.611C85.5364 41.4064 86.6843 36.1484 90.2968 30.6391C92.2973 30.3605 93.9445 28.6499 93.9445 26.4452C93.9445 24.1116 92.0461 22.2132 89.7127 22.2132C86.3395 22.2132 84.4446 25.8881 86.0799 28.6173C81.9915 33.9283 74.0475 42.6352 69.5389 37.6263C67.503 35.2986 66.3586 30.386 66.1357 23.0211C67.8564 22.7939 69.1936 21.3106 69.1936 19.5334C69.1936 17.5937 67.6155 16.0156 65.6758 16.0156C63.7361 16.0156 62.158 17.5937 62.158 19.5334C62.158 20.6032 62.6369 21.5982 63.4564 22.2632C60.599 27.6459 55.3497 35.8823 49.2282 35.6941C43.301 35.5169 38.77 27.519 36.5566 22.0124C37.2095 21.3556 37.5784 20.4685 37.5784 19.5334C37.5784 17.5937 36.0004 16.0156 34.0606 16.0156C32.1207 16.0156 30.5426 17.5937 30.5426 19.5334C30.5426 21.3122 31.8821 22.7969 33.6051 23.0217C33.5695 24.5111 33.4128 26.8967 33.1834 28.713C32.4159 34.8347 30.7008 38.2987 28.086 39.0091C23.3784 40.2842 16.6682 32.4996 13.8003 28.8065C15.6673 26.041 13.7022 22.2132 10.2875 22.2132C7.95391 22.2132 6.05569 24.1118 6.05569 26.4452C6.05569 28.5353 7.53949 30.184 9.40294 30.5855C12.3081 34.9977 14.1278 40.0599 14.5874 44.976C12.8642 43.2487 11.3959 41.6742 10.312 40.476C11.7372 36.99 9.17519 33.1026 5.35317 33.1026C2.40149 33.1026 0 35.5041 0 38.4558C0 41.5028 2.45198 43.7329 5.22264 43.8104C15.1661 50.0794 18.2395 57.8401 19.0636 63.256C19.9616 69.157 18.4656 73.6378 18.4503 73.6824C18.4105 73.7999 18.4241 73.929 18.4885 74.0352C26.3104 86.952 72.3414 87.7756 81.1809 74.0451C81.2503 73.9372 81.2664 73.8037 81.2251 73.6826C81.2098 73.638 79.713 69.1566 80.6115 63.2543C81.4359 57.8374 84.5114 50.0737 94.4624 43.8014C97.3287 43.8919 100 41.6729 100 38.4564C100 35.5041 97.5985 33.1026 94.6468 33.1026ZM10.4566 30.6751C10.8086 30.6603 11.1618 30.6024 11.5101 30.4977C11.7317 30.4311 11.857 30.197 11.7904 29.9756C11.7238 29.7537 11.4891 29.6292 11.2683 29.6952C9.09495 30.3502 6.89355 28.7256 6.89355 26.4452C6.89355 24.5736 8.41611 23.0512 10.2873 23.0512C13.1839 23.0512 14.6652 26.388 12.9473 28.5529C12.8277 28.7036 12.826 28.9162 12.9432 29.0688C16.1947 33.2996 22.1098 39.9867 27.012 39.9861C31.8297 39.9838 33.4122 33.621 34.0143 28.8178C34.2689 26.8014 34.4355 24.0913 34.4493 22.6362C34.4514 22.4032 34.2641 22.2152 34.0342 22.2129C32.5708 22.1993 31.3801 20.9971 31.3801 19.5332C31.3801 18.0555 32.5823 16.8535 34.06 16.8535C35.5377 16.8535 36.7397 18.0555 36.7397 19.5332C36.7397 20.3258 36.3915 21.0738 35.7841 21.5846C35.6249 21.7187 35.5905 21.9462 35.6936 22.1195C35.8285 22.4111 36.9564 25.5235 39.1446 28.9749C45.3605 38.7789 52.8374 39.3366 60.3333 28.9454C62.1046 26.4936 64.0313 23.0491 64.3045 22.4512C64.4063 22.2282 64.5107 21.9722 64.2222 21.7853C63.4541 21.2886 62.9956 20.4465 62.9956 19.5332C62.9956 18.0555 64.1976 16.8535 65.6754 16.8535C67.1531 16.8535 68.3551 18.0555 68.3551 19.5332C68.3551 20.9967 67.1644 22.1991 65.7011 22.2134C65.4677 22.2155 65.2804 22.4093 65.2865 22.6431C65.4849 30.4304 66.7033 35.6571 68.9118 38.1824C73.9779 43.8111 82.3362 34.9061 86.9255 28.8911C87.0363 28.7459 87.0403 28.5454 86.9351 28.3958C85.3933 26.2055 86.9137 23.051 89.7127 23.051C91.5841 23.051 93.1065 24.5736 93.1065 26.445C93.1065 28.7229 90.9126 30.3439 88.7437 29.6984C88.5222 29.6328 88.2886 29.7587 88.2226 29.9806C88.1568 30.2025 88.2829 30.4359 88.5048 30.5017C88.764 30.5788 89.0257 30.6293 89.2876 30.6565C85.4306 36.7549 84.4781 42.4986 84.2627 45.5343C78.9567 50.7794 66.5926 62.0753 60.2799 58.0518C57.3452 56.1854 55.5867 53.6624 54.6042 51.7914C54.7088 51.6541 54.8069 51.5123 54.8993 51.3675C58.13 51.7059 61.2223 52.386 63.8532 53.3428C64.0715 53.4223 64.3114 53.3089 64.3902 53.0923C64.4692 52.8748 64.3571 52.6343 64.1396 52.5553C61.5378 51.6091 58.4996 50.9296 55.3244 50.5728C57.1581 46.4736 54.1408 41.8743 49.6911 41.8743C45.2022 41.8743 42.2065 46.54 44.076 50.6216C37.5005 51.4283 31.8745 53.6129 28.8527 56.5348C24.2079 53.9125 19.2873 49.5969 15.4953 45.8759C15.1967 40.7244 13.4167 35.365 10.4566 30.6751ZM44.5139 51.4147C44.6042 51.5536 44.6999 51.6891 44.8016 51.8207C43.8195 53.6821 42.0665 56.1914 39.144 58.0524C36.9046 59.4786 33.7145 59.1071 29.6262 56.9572C32.6156 54.2002 38.1062 52.1503 44.5139 51.4147ZM92.0651 42.1605C91.8751 42.0283 91.6143 42.0744 91.4816 42.264C91.349 42.4538 91.3955 42.7151 91.5851 42.8475C92.0882 43.1988 92.6378 43.4536 93.2091 43.612C83.6115 49.9709 80.5976 57.7155 79.7767 63.1678C78.955 68.6238 80.0772 72.8012 80.3682 73.7543C71.5668 86.8202 27.0445 85.869 19.3049 73.7605C19.593 72.8202 20.7213 68.6366 19.8983 63.1694C19.0799 57.7341 16.0838 50.0207 6.55748 43.6753C7.09259 43.5504 7.61492 43.3426 8.10644 43.0474C8.30465 42.9282 8.36897 42.6707 8.24996 42.4722C8.13054 42.2738 7.87304 42.2099 7.67484 42.3287C4.70178 44.1153 0.83807 41.9866 0.83807 38.4558C0.83807 35.9661 2.86348 33.9407 5.35317 33.9407C8.65664 33.9407 10.8289 37.3789 9.4528 40.3502C9.36606 40.5055 9.38639 40.7008 9.50728 40.8351C15.8035 47.8279 31.6703 63.8047 39.5942 58.7593C42.5285 56.8906 44.3398 54.4064 45.3953 52.4851C46.8112 53.8553 48.7572 54.4487 50.6515 54.1512C50.8803 54.1155 51.0366 53.9012 51.0008 53.6726C50.9651 53.4438 50.7491 53.2884 50.5222 53.3234C46.9818 53.8763 43.9765 50.8741 44.3869 47.4441C44.6901 44.9117 46.8075 42.7126 49.6911 42.7126C52.6342 42.7126 55.0287 45.1069 55.0287 48.05C55.0287 49.2887 54.5957 50.494 53.8083 51.4469C53.683 51.5739 53.6512 51.7683 53.7329 51.9303C54.7358 53.9144 56.6079 56.71 59.83 58.7593C67.8072 63.8437 83.9524 47.5124 90.3119 40.3945C90.42 40.2736 90.4464 40.1047 90.3886 39.9603C89.3548 37.0342 91.5196 33.9411 94.6472 33.9411C97.1369 33.9411 99.1623 35.9665 99.1623 38.4562C99.1619 42.1647 94.9875 44.2008 92.0651 42.1605Z" fill="#D6585B"/>
</g>
<defs>
<clipPath id="clip0_19_204">
<rect width="100" height="100" fill="white"/>
</clipPath>
</defs>
</svg>
