<svg width="60" height="60" viewBox="0 0 60 60" fill="none" xmlns="http://www.w3.org/2000/svg">
<g clip-path="url(#clip0_19_409)">
<path d="M59.7437 40.9129V59.7436H50.5693L44.9578 55.6718C41.3847 56.2642 38.5347 55.9206 36.3552 55.2436C35.3004 54.9209 34.2874 54.4746 33.3373 53.9142C31.6078 52.8924 30.7886 51.8718 30.7886 51.8718L38.9796 36.2975L59.7437 40.9129Z" fill="#FFE6E7"/>
<path d="M39.2028 51.009C39.2028 51.009 40.0271 54.7256 36.3554 55.2436C35.3005 54.9208 34.2875 54.4746 33.3374 53.9141C33.3989 52.1884 36.0195 49.4705 36.0195 49.4705L41.3771 46.0743C41.3771 46.0743 43.4836 51.3102 39.2028 51.009Z" fill="#FFE6E7"/>
<path d="M59.7439 59.7437H50.5695L44.958 55.6719C46.6257 55.3888 48.265 54.9585 49.8567 54.386L59.7439 59.7437Z" fill="#FFE6E7"/>
<path d="M34.6513 54.5923C34.0347 55.382 32.7501 55.5384 32.0488 54.9333C30.9321 53.9705 28.1103 52.991 25.9719 50.6012C25.0821 49.6064 25.0719 48.5359 25.3654 47.6243C25.7757 46.3448 26.7821 45.3782 26.7821 45.3782L33.736 50.9551C35.2231 52.6282 35.2142 53.873 34.6513 54.5923Z" fill="#FFE6E7"/>
<path d="M34.6516 54.5923C33.7747 53.6423 32.1901 52.2128 29.7055 50.9307C27.1285 49.6013 25.917 48.373 25.3657 47.6243C25.776 46.3448 26.7824 45.3782 26.7824 45.3782L33.7362 50.9551C35.2234 52.6282 35.2144 53.873 34.6516 54.5923Z" fill="#FFE6E7"/>
<path d="M37.7645 51.9974C37.321 53.5731 35.5133 54.1564 33.7607 52.5205C30.7774 49.7384 27.5248 49.6013 26.1504 46.5679C26.0732 46.3982 26.0101 46.2224 25.962 46.0423C25.462 44.1461 26.8235 42.3423 27.7863 41.3513C28.056 41.0703 28.3438 40.8074 28.6479 40.5641L30.4569 42.2577L33.7312 45.3231L36.1953 47.6295C36.8233 48.2865 37.3121 49.0636 37.6325 49.9141C37.9081 50.7025 37.9287 51.4167 37.7645 51.9974Z" fill="#FFE6E7"/>
<path d="M37.7642 51.9974C37.1116 51.8615 36.2885 51.409 35.3013 50.3397C32.4475 47.2526 27.7744 44.3538 27.7744 44.3538C27.7744 44.3538 28.9462 42.1243 30.3962 43.2385C30.9975 43.7013 32.3526 44.5218 33.7308 45.3231L36.1949 47.6295C36.8229 48.2865 37.3117 49.0636 37.6321 49.9141C37.9077 50.7026 37.9283 51.4167 37.7642 51.9974Z" fill="#FFE6E7"/>
<path d="M37.6322 49.9142C36.9873 49.7783 36.295 49.4039 35.6219 48.7577C33.2693 46.4949 30.4924 45.2347 28.9527 43.8206C28.1591 43.0911 27.6937 42.3219 27.786 41.3513C27.8086 41.1285 27.8555 40.9089 27.9258 40.6962C28.2732 39.6206 28.8975 38.6257 29.5873 37.7706C30.5178 36.6353 31.5942 35.6279 32.7886 34.7744L36.1091 39.8424C42.5963 45.968 40.6578 50.5552 37.6322 49.9142Z" fill="#FFE6E7"/>
<path d="M31.862 40.3743C31.4425 41.0372 30.9727 41.6668 30.4569 42.2577C29.986 42.807 29.4839 43.3289 28.953 43.8205C28.0431 44.6716 27.0397 45.417 25.962 46.0423C25.462 44.1461 26.8235 42.3423 27.7863 41.3513C27.809 41.1285 27.8558 40.9088 27.9261 40.6961C28.2735 39.6205 28.8979 38.6256 29.5876 37.7705C30.7184 37.4077 32.5902 37.2231 31.862 40.3743Z" fill="#FFE6E7"/>
<path d="M59.7436 40.9128L48.859 45.168L48.3218 45.3782L44.9577 43.3782L41.1872 40.5641L36.6385 37.6231L31.8398 37.9949C31.6244 38.2975 31.4103 38.5923 31.1975 38.8769C18.741 55.6244 11.3487 42.9526 17.1244 40.7218C19.3757 39.8513 21.7475 38.7846 25.7282 35.4244C27.6398 33.8116 29.4398 32.3616 31.1539 31.1705C32.3077 30.3514 33.5273 29.6288 34.8 29.0103C37.5975 27.6885 40.1885 27.3795 42.7039 28.6C44.8693 29.65 50.7193 33.968 56.6667 38.5359C57.6962 39.3257 58.727 40.1231 59.7436 40.9128Z" fill="#FFE6E7"/>
<path d="M49.8552 46.2064C40.909 49.5308 38.7346 42.1679 38.7346 42.1679C34.7987 41.7872 32.5167 40.35 31.1975 38.8769C29.5731 37.0641 29.4077 35.1987 29.4077 35.1987L31.1539 31.6449V31.1705C32.3077 30.3513 33.5273 29.6288 34.8 29.0103C36.241 30.1308 41.1026 33.5551 47.0167 33.782L44.4423 40.5641L48.859 45.1679L49.8552 46.2064Z" fill="#FFE6E7"/>
<path d="M41.8257 46.0743C41.0296 47.0243 39.4847 47.8512 36.5398 47.9448L15.1783 19.573L6.58725 8.16278C6.58725 8.16278 6.37571 1.0397 12.7347 3.59483L21.0949 14.6512L32.7808 30.1064L42.5475 43.023C42.5475 43.023 42.9911 44.682 41.8257 46.0743Z" fill="#FFF7F7"/>
<path d="M21.0949 14.6512C19.4001 18.873 16.7244 19.5653 15.1783 19.573L6.58725 8.16278C6.58725 8.16278 6.37571 1.0397 12.7347 3.59483L21.0949 14.6512Z" fill="#FF8F91"/>
<path d="M41.8257 46.0744C39.4654 44.6436 38.7346 42.168 38.7346 42.168C34.7987 41.7872 32.5167 40.35 31.1975 38.877C29.5731 37.0641 29.4077 35.1988 29.4077 35.1988L31.1539 31.6449V31.1705C31.7039 30.7872 32.2462 30.4325 32.7808 30.1064L42.5475 43.0231C42.5475 43.0231 42.991 44.6821 41.8257 46.0744Z" fill="#FFD1D2"/>
<path d="M12.7347 3.59483C10.7244 9.45893 6.58725 8.16278 6.58725 8.16278C6.58725 8.16278 6.37571 1.0397 12.7347 3.59483Z" fill="#FF7A7D"/>
<path d="M49.8553 46.2064C45.1374 46.0436 42.254 43.4372 40.7182 41.4154C40.3889 40.9827 40.0867 40.5301 39.813 40.0603C25.7028 41.591 27.3989 26.1551 34.3156 30.6641C40.9694 35 47.0169 33.782 47.0169 33.782L49.8553 46.2064Z" fill="#FFE6E7"/>
<path d="M43.5579 39.3346L40.7181 41.4154C40.3889 40.9826 40.0866 40.5301 39.813 40.0602C41.0782 39.9157 42.3303 39.6731 43.5579 39.3346Z" fill="#FFE6E7"/>
<path d="M10.1155 34.4872L8.28212 35.4509C8.19846 35.4949 8.10416 35.5146 8.00988 35.5078C7.9156 35.501 7.82511 35.468 7.74864 35.4124C7.67217 35.3569 7.61277 35.281 7.57715 35.1935C7.54154 35.1059 7.53114 35.0101 7.54712 34.917L7.8975 32.8754C7.91146 32.7944 7.9055 32.7113 7.88012 32.6331C7.85475 32.5549 7.81073 32.4841 7.75186 32.4267L6.26814 30.9813C6.20048 30.9153 6.15262 30.8317 6.12998 30.74C6.10734 30.6482 6.11082 30.5519 6.14003 30.462C6.16924 30.3721 6.22301 30.2922 6.29527 30.2313C6.36752 30.1703 6.45538 30.1308 6.54891 30.1172L8.59853 29.8194C8.67982 29.8076 8.75702 29.7762 8.82347 29.7279C8.88992 29.6796 8.94362 29.6159 8.97994 29.5422L9.8966 27.6849C9.93846 27.6002 10.0032 27.5288 10.0835 27.4789C10.1637 27.429 10.2564 27.4026 10.3509 27.4026C10.4454 27.4026 10.5381 27.429 10.6183 27.4789C10.6986 27.5288 10.7633 27.6002 10.8052 27.6849L11.7219 29.5422C11.7582 29.6159 11.8119 29.6796 11.8783 29.7279C11.9448 29.7762 12.022 29.8076 12.1033 29.8194L14.153 30.1172C14.2465 30.1308 14.3344 30.1703 14.4067 30.2313C14.4789 30.2922 14.5327 30.3721 14.5619 30.462C14.5911 30.5519 14.5946 30.6482 14.5719 30.74C14.5493 30.8317 14.5014 30.9153 14.4338 30.9813L12.9506 32.4271C12.8917 32.4844 12.8476 32.5553 12.8222 32.6334C12.7968 32.7116 12.7909 32.7948 12.8048 32.8758L13.1549 34.9172C13.1709 35.0104 13.1605 35.1062 13.1249 35.1937C13.0893 35.2813 13.0299 35.3571 12.9534 35.4127C12.8769 35.4682 12.7865 35.5013 12.6922 35.5081C12.5979 35.5149 12.5036 35.4952 12.4199 35.4512L10.5866 34.4872C10.514 34.449 10.4331 34.429 10.351 34.429C10.2689 34.429 10.1881 34.449 10.1155 34.4872Z" fill="#FFAEB0"/>
<path d="M39.2485 17.6816L37.4152 18.6455C37.3315 18.6895 37.2372 18.7092 37.1429 18.7024C37.0486 18.6955 36.9581 18.6625 36.8816 18.6069C36.8051 18.5513 36.7457 18.4755 36.7101 18.3879C36.6745 18.3003 36.6642 18.2045 36.6802 18.1113L37.0303 16.0699C37.0443 15.9889 37.0383 15.9058 37.0129 15.8276C36.9875 15.7494 36.9435 15.6786 36.8847 15.6212L35.4014 14.1755C35.3338 14.1095 35.2859 14.0259 35.2633 13.9341C35.2406 13.8423 35.2441 13.7461 35.2733 13.6562C35.3025 13.5663 35.3563 13.4863 35.4286 13.4254C35.5008 13.3645 35.5887 13.325 35.6822 13.3113L37.7318 13.0135C37.8131 13.0017 37.8903 12.9703 37.9568 12.922C38.0233 12.8737 38.077 12.81 38.1134 12.7363L39.03 10.879C39.0719 10.7943 39.1366 10.7229 39.2168 10.673C39.2971 10.6231 39.3897 10.5967 39.4843 10.5967C39.5788 10.5967 39.6714 10.6231 39.7517 10.673C39.832 10.7229 39.8967 10.7943 39.9385 10.879L40.8552 12.7363C40.8915 12.81 40.9452 12.8737 41.0117 12.922C41.0781 12.9703 41.1553 13.0017 41.2366 13.0135L43.2863 13.3113C43.3798 13.325 43.4677 13.3645 43.54 13.4254C43.6122 13.4863 43.666 13.5663 43.6952 13.6562C43.7244 13.7461 43.7279 13.8423 43.7052 13.9341C43.6826 14.0259 43.6348 14.1095 43.5671 14.1755L42.0839 15.6212C42.025 15.6786 41.981 15.7494 41.9556 15.8276C41.9302 15.9058 41.9242 15.9889 41.9381 16.0699L42.2882 18.1113C42.3042 18.2045 42.2939 18.3003 42.2583 18.3879C42.2227 18.4755 42.1633 18.5513 42.0868 18.6069C42.0103 18.6625 41.9198 18.6955 41.8255 18.7024C41.7312 18.7092 41.6369 18.6895 41.5532 18.6455L39.7199 17.6816C39.6472 17.6433 39.5663 17.6233 39.4842 17.6233C39.4021 17.6233 39.3212 17.6433 39.2485 17.6816Z" fill="#FFAEB0"/>
<path d="M4.25719 20.6693L2.42386 21.6332C2.3402 21.6772 2.2459 21.6969 2.15162 21.6901C2.05734 21.6833 1.96685 21.6502 1.89038 21.5947C1.81391 21.5391 1.75451 21.4633 1.71889 21.3757C1.68328 21.2881 1.67288 21.1924 1.68886 21.0992L2.0386 19.0578C2.05255 18.9768 2.04656 18.8936 2.02117 18.8154C1.99577 18.7373 1.95172 18.6664 1.89283 18.6091L0.410397 17.1637C0.342686 17.0977 0.294785 17.0141 0.272111 16.9224C0.249437 16.8306 0.252896 16.7343 0.282096 16.6444C0.311296 16.5545 0.365072 16.4746 0.437341 16.4136C0.509611 16.3527 0.597489 16.3132 0.691038 16.2996L2.74078 16.0018C2.82207 15.99 2.89926 15.9586 2.9657 15.9103C3.03215 15.862 3.08585 15.7983 3.12219 15.7246L4.03886 13.8673C4.08071 13.7825 4.14543 13.7112 4.22571 13.6613C4.306 13.6114 4.39863 13.585 4.49315 13.585C4.58767 13.585 4.68031 13.6114 4.76059 13.6613C4.84087 13.7112 4.9056 13.7825 4.94745 13.8673L5.86411 15.7246C5.90045 15.7983 5.95416 15.862 6.0206 15.9103C6.08705 15.9586 6.16424 15.99 6.24553 16.0018L8.29501 16.2996C8.38856 16.3132 8.47644 16.3527 8.54871 16.4136C8.62098 16.4746 8.67475 16.5545 8.70395 16.6444C8.73315 16.7343 8.73661 16.8306 8.71394 16.9224C8.69127 17.0141 8.64336 17.0977 8.57565 17.1637L7.09258 18.6093C7.03369 18.6667 6.98964 18.7375 6.96424 18.8157C6.93885 18.8939 6.93286 18.9771 6.94681 19.0581L7.29694 21.0995C7.31292 21.1926 7.30251 21.2884 7.2669 21.376C7.23129 21.4635 7.17188 21.5394 7.09541 21.5949C7.01894 21.6505 6.92845 21.6835 6.83417 21.6903C6.7399 21.6971 6.6456 21.6774 6.56194 21.6334L4.7286 20.6696C4.65593 20.6313 4.57505 20.6113 4.49293 20.6113C4.41081 20.6112 4.3299 20.6312 4.25719 20.6693Z" fill="#FFAEB0"/>
<path d="M23.856 7.3409L22.0226 8.30475C21.939 8.34874 21.8447 8.36845 21.7504 8.36164C21.6561 8.35483 21.5656 8.32178 21.4891 8.26622C21.4127 8.21067 21.3533 8.13482 21.3177 8.04726C21.282 7.95971 21.2716 7.86393 21.2876 7.77077L21.6377 5.72936C21.6517 5.64836 21.6457 5.56519 21.6203 5.48702C21.595 5.40884 21.551 5.33802 21.4921 5.28064L20.0089 3.83513C19.9412 3.76915 19.8934 3.68556 19.8707 3.5938C19.8481 3.50203 19.8515 3.40577 19.8808 3.31588C19.91 3.22599 19.9637 3.14607 20.036 3.08515C20.1083 3.02423 20.1961 2.98475 20.2897 2.97116L22.3394 2.67321C22.4207 2.6614 22.4979 2.63001 22.5643 2.58174C22.6307 2.53348 22.6845 2.46979 22.7208 2.39616L23.6375 0.538464C23.6793 0.453708 23.744 0.382346 23.8243 0.332447C23.9046 0.282548 23.9972 0.256104 24.0917 0.256104C24.1862 0.256104 24.2789 0.282548 24.3591 0.332447C24.4394 0.382346 24.5041 0.453708 24.5459 0.538464L25.4626 2.39577C25.499 2.4694 25.5527 2.5331 25.6191 2.58136C25.6856 2.62962 25.7628 2.66101 25.844 2.67282L27.8938 2.97077C27.9873 2.98436 28.0752 3.02385 28.1474 3.08477C28.2197 3.14569 28.2735 3.22561 28.3027 3.3155C28.3319 3.40538 28.3354 3.50165 28.3127 3.59341C28.2901 3.68517 28.2422 3.76877 28.1745 3.83475L26.6913 5.2809C26.6325 5.33827 26.5885 5.4091 26.5631 5.48727C26.5377 5.56545 26.5318 5.64862 26.5457 5.72962L26.8958 7.77103C26.9118 7.86419 26.9014 7.95996 26.8658 8.04752C26.8302 8.13508 26.7708 8.21092 26.6943 8.26648C26.6178 8.32203 26.5273 8.35509 26.4331 8.36189C26.3388 8.3687 26.2445 8.349 26.1608 8.305L24.3275 7.34116C24.2548 7.30291 24.1739 7.28291 24.0918 7.28286C24.0096 7.28282 23.9287 7.30274 23.856 7.3409Z" fill="#FFAEB0"/>
<path d="M59.9013 40.7104C58.7551 39.82 57.7483 39.042 56.8234 38.3325C49.3916 32.6246 44.6789 29.2724 42.8162 28.3693C39.962 26.9841 36.8137 27.4157 32.9171 29.7283C32.8753 29.7166 32.8342 29.7074 32.7926 29.6972L12.9395 3.44023C12.9371 3.43689 12.9335 3.43459 12.9308 3.43138C12.9209 3.41947 12.91 3.40849 12.8981 3.39856C12.8918 3.39337 12.8851 3.38854 12.8783 3.38407C12.8677 3.37688 12.8565 3.37053 12.8449 3.3651C12.8399 3.36266 12.8358 3.35895 12.8307 3.35702C10.9126 2.58613 9.36814 2.59459 8.24006 3.38164C6.25288 4.76766 6.32724 8.03202 6.33134 8.17036C6.33134 8.17331 6.33275 8.17587 6.33288 8.17882C6.33418 8.20002 6.33805 8.22099 6.34442 8.24125C6.34647 8.24728 6.34916 8.25279 6.3516 8.25869C6.3584 8.27571 6.367 8.29195 6.37724 8.30715C6.37942 8.31023 6.38019 8.31407 6.38249 8.31702L26.2261 34.6724C26.0062 34.8561 25.7865 35.04 25.563 35.2283C21.6158 38.5609 19.2751 39.6154 17.0324 40.4827C15.6478 41.0177 14.8401 42.1878 14.874 43.6125C14.914 45.3048 16.1056 46.8296 17.839 47.4066C18.3745 47.5795 18.9343 47.6649 19.497 47.6598C20.9404 47.6598 23.0107 47.1507 25.6008 45.1741C25.5967 45.5386 25.6497 45.9015 25.7578 46.2496C24.6616 47.9233 24.6665 49.5257 25.7812 50.7723C27.2078 52.3665 28.8948 53.3236 30.2502 54.0928C30.9285 54.4774 31.5145 54.8107 31.8819 55.127C32.2321 55.4148 32.6736 55.5679 33.1269 55.5587C33.4957 55.5581 33.859 55.4689 34.1862 55.2986C34.3831 55.1966 34.5623 55.0633 34.7166 54.9041C37.6781 56.2029 41.099 56.5536 44.894 55.9416L50.4197 59.9506C50.4469 59.9704 50.4778 59.9846 50.5106 59.9924C50.5433 60.0003 50.5773 60.0016 50.6105 59.9963C50.6438 59.991 50.6757 59.9792 50.7044 59.9616C50.7331 59.944 50.758 59.9209 50.7778 59.8936C50.7976 59.8664 50.8118 59.8355 50.8196 59.8027C50.8275 59.77 50.8288 59.736 50.8235 59.7028C50.8182 59.6695 50.8064 59.6376 50.7888 59.6089C50.7712 59.5802 50.7481 59.5553 50.7208 59.5355L45.5981 55.8184C47.0745 55.5319 48.5268 55.1333 49.9426 54.6261C49.9747 54.6152 50.0043 54.598 50.0298 54.5755C50.0552 54.553 50.0758 54.5257 50.0906 54.4951C50.1054 54.4646 50.114 54.4314 50.1158 54.3976C50.1177 54.3637 50.1128 54.3298 50.1015 54.2978C50.0902 54.2658 50.0726 54.2364 50.0498 54.2113C50.027 54.1861 49.9995 54.1658 49.9688 54.1514C49.9381 54.1369 49.9048 54.1288 49.8709 54.1273C49.837 54.1258 49.8032 54.1311 49.7713 54.1428C48.1945 54.7096 46.5707 55.1362 44.9189 55.4178H44.9167C41.2244 56.0292 37.9003 55.7118 35.0279 54.4787C35.1591 54.2293 35.2356 53.9547 35.252 53.6733C35.4541 53.7243 35.6616 53.7505 35.8701 53.7514C36.2924 53.7551 36.7067 53.6358 37.0624 53.4081C37.9934 52.7998 38.338 51.5779 37.9919 50.2248C38.056 50.2292 38.1201 50.232 38.1825 50.232C38.5299 50.2337 38.8736 50.1617 39.1911 50.0206C40.1415 49.5952 40.6953 48.5796 40.6943 47.2864C41.1727 47.0397 41.6023 46.708 41.9621 46.3077C42.5314 45.6575 42.8572 44.8297 42.8837 43.9659C44.876 45.5249 47.3176 46.4005 49.8466 46.4628H49.8556C49.9236 46.464 49.9893 46.4381 50.0382 46.3908C50.0871 46.3436 50.1152 46.2788 50.1164 46.2108C50.1176 46.1428 50.0917 46.0771 50.0444 46.0282C49.9972 45.9793 49.9324 45.9511 49.8644 45.95C44.3798 45.7602 41.414 42.1465 40.2376 40.2668C41.381 40.1154 42.5127 39.8865 43.6249 39.5815C43.658 39.5732 43.689 39.5584 43.7162 39.538C43.7435 39.5175 43.7664 39.4919 43.7836 39.4625C43.8008 39.4332 43.812 39.4007 43.8165 39.3669C43.821 39.3332 43.8188 39.2989 43.8099 39.266C43.801 39.2331 43.7857 39.2023 43.7648 39.1755C43.7439 39.1486 43.7179 39.1261 43.6882 39.1094C43.6585 39.0927 43.6258 39.0821 43.592 39.0782C43.5582 39.0742 43.5239 39.0771 43.4912 39.0865C42.2762 39.4212 41.0371 39.6612 39.7851 39.8045C34.9011 40.3342 31.1808 38.7636 29.833 35.6029C29.0222 33.7015 29.2894 31.6029 30.4684 30.6143C31.0476 30.1286 31.7761 29.9815 32.5947 30.1682C32.598 30.1682 32.6012 30.1697 32.6047 30.1701C32.6944 30.1907 32.7842 30.216 32.8753 30.2445C32.8816 30.2465 32.8881 30.2493 32.8942 30.2509C33.3475 30.4016 33.7785 30.6126 34.1756 30.8782C40.8397 35.2214 47.0067 34.0448 47.0681 34.032C47.1348 34.0186 47.1934 33.9793 47.2311 33.9227C47.2688 33.8661 47.2824 33.7968 47.269 33.7301C47.2556 33.6634 47.2163 33.6048 47.1597 33.5671C47.1031 33.5294 47.0338 33.5158 46.9671 33.5292C46.9074 33.5409 40.9361 34.6715 34.4556 30.4479C34.1672 30.2582 33.8636 30.0927 33.5479 29.9531C37.1531 27.8961 39.9592 27.5516 42.5925 28.8298C44.4239 29.7178 49.1067 33.0515 56.511 38.7384C57.4353 39.4474 58.4413 40.2246 59.5867 41.1143C59.6132 41.1357 59.6438 41.1516 59.6765 41.161C59.7092 41.1704 59.7434 41.1733 59.7773 41.1693C59.8111 41.1654 59.8438 41.1548 59.8735 41.138C59.9031 41.1213 59.9292 41.0989 59.9501 41.072C59.9709 41.0451 59.9863 41.0143 59.9951 40.9814C60.004 40.9486 60.0062 40.9143 60.0017 40.8805C59.9972 40.8468 59.986 40.8143 59.9687 40.7849C59.9515 40.7555 59.9286 40.7299 59.9013 40.7095V40.7104ZM8.53467 3.80125C9.46852 3.15074 10.7719 3.13356 12.4094 3.7451C10.703 8.4269 7.62865 8.12472 6.84519 7.96254C6.86198 7.26382 7.03096 4.8492 8.53467 3.80125ZM7.1757 8.51689C7.28878 8.52587 7.41314 8.5319 7.54839 8.5319C8.92403 8.5319 11.3488 7.93343 12.8147 4.12446L20.8019 14.6878C19.1931 18.5743 16.7249 19.2701 15.3052 19.3141L7.1757 8.51689ZM25.716 44.4381C21.8298 47.5909 19.1592 47.3057 18.001 46.9201C16.2353 46.3323 15.4157 44.8292 15.3867 43.6005C15.3584 42.4013 16.0426 41.4146 17.2172 40.9609C19.5024 40.0774 21.8854 39.0039 25.8939 35.6204C26.1099 35.4382 26.3225 35.2604 26.5349 35.0828L30.1258 39.852C29.3362 40.8466 28.5783 41.711 27.8534 42.4616C27.8434 42.4705 27.8341 42.4801 27.8256 42.4904C27.1807 43.1609 26.4976 43.7937 25.7798 44.3856C25.7558 44.3995 25.7342 44.4172 25.716 44.4381ZM33.9493 54.8443C33.3675 55.1473 32.6389 55.1032 32.2166 54.7392C31.8112 54.3896 31.2052 54.0456 30.5034 53.6473C29.1804 52.8965 27.5339 51.962 26.1634 50.4304C25.0749 49.2132 25.4086 47.8648 25.9967 46.836C26.8462 48.5688 28.2775 49.3504 29.929 50.2475C31.1283 50.8989 32.3684 51.5727 33.586 52.7079C33.9255 53.0338 34.3169 53.301 34.744 53.4986C34.7566 53.7759 34.6881 54.0508 34.547 54.2898C34.4058 54.5288 34.1981 54.7215 33.9492 54.8443H33.9493ZM36.7825 52.9798C36.0013 53.4904 34.9107 53.2424 33.9363 52.3329C32.6711 51.1534 31.3448 50.4325 30.1745 49.7969C28.5525 48.9157 27.1517 48.1547 26.3848 46.462C26.1404 45.9234 26.0585 45.325 26.1492 44.7405C26.7847 44.2158 27.3931 43.6591 27.972 43.0725C28.6174 44.082 29.8903 44.9131 31.346 45.8611C32.6457 46.7073 34.1189 47.667 35.4453 48.9424C36.0816 49.5542 36.7658 49.9559 37.4325 50.1314C37.8181 51.3564 37.5703 52.4647 36.7825 52.9798ZM38.9821 49.5537C38.5805 49.7257 38.1347 49.7661 37.7086 49.6691C37.6879 49.6623 37.6664 49.6582 37.6445 49.6569C37.0371 49.5175 36.3995 49.1493 35.7999 48.5728C34.4386 47.2637 32.9439 46.2907 31.6251 45.4318C30.1656 44.4813 28.8965 43.6537 28.3399 42.6943C29.0161 41.9877 29.7181 41.1857 30.4451 40.276L36.3353 48.0995C36.3592 48.1313 36.3902 48.1572 36.4258 48.175C36.4614 48.1928 36.5006 48.202 36.5404 48.202H36.5485C37.9972 48.1559 39.2084 47.9316 40.1748 47.5333C40.1133 48.4983 39.6825 49.2398 38.9815 49.5537H38.9821ZM30.1388 30.2218C28.7911 31.3525 28.464 33.7004 29.3613 35.8045C29.8101 36.8572 30.767 38.3246 32.7754 39.3373C34.627 40.2707 36.9479 40.6048 39.6757 40.3318C40.3999 41.5352 41.3074 42.6184 42.3653 43.5423C42.4021 43.9791 42.3514 44.4188 42.216 44.8357C42.0806 45.2526 41.8634 45.6383 41.577 45.9701C41.226 46.3577 40.8028 46.6731 40.331 46.8986C40.328 46.8998 40.3253 46.9014 40.3225 46.9028C39.3976 47.3609 38.1756 47.6234 36.6647 47.6838L15.6736 19.8042C17.2156 19.6573 19.5651 18.7807 21.1585 15.1602L32.067 29.5869C31.3666 29.5437 30.6764 29.7709 30.1388 30.2218Z" fill="#D6585B"/>
<path d="M14.1902 29.8635L12.1405 29.5656C12.1003 29.5598 12.0622 29.5443 12.0294 29.5205C11.9966 29.4967 11.9701 29.4652 11.9521 29.4289L11.0355 27.5716C10.9725 27.4439 10.875 27.3363 10.7541 27.2612C10.6332 27.186 10.4937 27.1461 10.3513 27.1461C10.2089 27.1461 10.0694 27.186 9.94846 27.2612C9.82755 27.3363 9.73009 27.4439 9.66713 27.5716L8.75046 29.4288C8.73255 29.4652 8.70604 29.4966 8.67322 29.5205C8.64041 29.5443 8.60227 29.5598 8.56213 29.5656L6.51238 29.8635C6.37147 29.8839 6.23908 29.9434 6.1302 30.0351C6.02132 30.1269 5.94029 30.2473 5.89626 30.3827C5.85224 30.5181 5.84699 30.6631 5.88111 30.8014C5.91522 30.9396 5.98734 31.0655 6.08931 31.1649L7.57251 32.6107C7.60153 32.639 7.62324 32.674 7.63577 32.7125C7.6483 32.7511 7.65127 32.7921 7.64443 32.8321L7.2943 34.8736C7.2703 35.0139 7.28601 35.1582 7.33967 35.29C7.39333 35.4218 7.48279 35.536 7.59796 35.6197C7.71312 35.7034 7.84939 35.7532 7.99136 35.7634C8.13333 35.7737 8.27535 35.7441 8.40136 35.6779L10.2347 34.7141C10.2706 34.6953 10.3105 34.6854 10.3511 34.6854C10.3917 34.6854 10.4316 34.6953 10.4675 34.7141L12.3008 35.6779C12.4269 35.7441 12.5689 35.7737 12.7108 35.7634C12.8528 35.7532 12.9891 35.7034 13.1042 35.6197C13.2194 35.536 13.3089 35.4218 13.3625 35.29C13.4162 35.1582 13.4319 35.0139 13.4079 34.8736L13.0578 32.8321C13.0509 32.7921 13.0538 32.7511 13.0664 32.7125C13.0789 32.6739 13.1006 32.639 13.1297 32.6107L14.6129 31.1649C14.7149 31.0655 14.787 30.9396 14.8211 30.8014C14.8552 30.6631 14.85 30.5181 14.8059 30.3827C14.7619 30.2473 14.6809 30.1269 14.572 30.0351C14.4631 29.9434 14.3307 29.8839 14.1898 29.8635H14.1902ZM14.2552 30.7976L12.772 32.2436C12.6834 32.33 12.6171 32.4366 12.5789 32.5542C12.5406 32.6719 12.5316 32.7971 12.5525 32.919L12.9026 34.9604C12.9105 35.0064 12.9054 35.0537 12.8878 35.097C12.8702 35.1402 12.8409 35.1777 12.8031 35.2051C12.7654 35.2326 12.7207 35.2489 12.6741 35.2522C12.6276 35.2556 12.581 35.2459 12.5397 35.2241L10.7064 34.2604C10.5969 34.2028 10.475 34.1727 10.3513 34.1727C10.2276 34.1727 10.1057 34.2028 9.99623 34.2604L8.16289 35.2241C8.12158 35.2459 8.07499 35.2557 8.02841 35.2523C7.98183 35.249 7.93711 35.2327 7.89933 35.2052C7.86154 35.1778 7.8322 35.1403 7.81461 35.097C7.79702 35.0538 7.7919 35.0065 7.79982 34.9604L8.14995 32.919C8.17086 32.7971 8.16181 32.6719 8.1236 32.5543C8.08539 32.4366 8.01915 32.33 7.93059 32.2436L6.44751 30.7976C6.41407 30.765 6.39041 30.7238 6.37922 30.6785C6.36802 30.6332 6.36973 30.5856 6.38415 30.5412C6.39857 30.4968 6.42513 30.4574 6.46082 30.4273C6.49651 30.3972 6.53991 30.3778 6.5861 30.3711L8.63572 30.0731C8.75817 30.0554 8.87447 30.0081 8.97458 29.9354C9.07469 29.8626 9.1556 29.7667 9.21033 29.6557L10.127 27.7984C10.1476 27.7565 10.1796 27.7212 10.2192 27.6966C10.2589 27.6719 10.3047 27.6588 10.3514 27.6588C10.3981 27.6588 10.4438 27.6719 10.4835 27.6966C10.5231 27.7212 10.5551 27.7565 10.5757 27.7984L11.4924 29.6558C11.5471 29.7667 11.628 29.8627 11.7281 29.9354C11.8282 30.0081 11.9445 30.0554 12.0669 30.0731L14.1166 30.3711C14.1628 30.3778 14.2062 30.3973 14.2418 30.4273C14.2775 30.4574 14.3041 30.4969 14.3185 30.5412C14.3329 30.5856 14.3347 30.6331 14.3235 30.6784C14.3123 30.7237 14.2887 30.765 14.2553 30.7976H14.2552Z" fill="#D6585B"/>
<path d="M36.7052 15.805C36.7343 15.8333 36.756 15.8683 36.7686 15.9069C36.7811 15.9455 36.784 15.9866 36.7771 16.0266L36.4271 18.0681C36.4026 18.2085 36.418 18.353 36.4715 18.4851C36.525 18.6173 36.6145 18.7317 36.7298 18.8155C36.8451 18.8993 36.9817 18.949 37.1238 18.9591C37.266 18.9691 37.4082 18.9391 37.5342 18.8723L39.3675 17.9086C39.4034 17.8897 39.4434 17.8799 39.484 17.8799C39.5246 17.8799 39.5645 17.8897 39.6004 17.9086L41.4338 18.8723C41.5598 18.9386 41.7018 18.9683 41.8438 18.958C41.9858 18.9478 42.1221 18.898 42.2373 18.8143C42.3525 18.7306 42.4419 18.6164 42.4956 18.4845C42.5492 18.3527 42.5649 18.2084 42.5408 18.0681L42.1907 16.0266C42.1838 15.9866 42.1868 15.9455 42.1993 15.9069C42.2119 15.8683 42.2336 15.8334 42.2626 15.805L43.746 14.359C43.8479 14.2596 43.92 14.1337 43.9542 13.9955C43.9883 13.8572 43.983 13.7122 43.939 13.5768C43.895 13.4414 43.8139 13.321 43.7051 13.2292C43.5962 13.1375 43.4638 13.078 43.3229 13.0576L41.273 12.7596C41.2329 12.7539 41.1948 12.7384 41.1619 12.7146C41.1291 12.6908 41.1026 12.6593 41.0847 12.623L40.1681 10.7657C40.1052 10.638 40.0077 10.5304 39.8868 10.4553C39.7659 10.3801 39.6264 10.3402 39.484 10.3402C39.3416 10.3402 39.202 10.3801 39.0811 10.4553C38.9602 10.5304 38.8628 10.638 38.7998 10.7657L37.8829 12.623C37.865 12.6593 37.8385 12.6908 37.8058 12.7146C37.773 12.7384 37.7349 12.7539 37.6948 12.7596L35.6449 13.0576C35.5041 13.0781 35.3718 13.1376 35.2629 13.2293C35.1541 13.3211 35.0731 13.4414 35.0291 13.5768C34.9851 13.7122 34.9798 13.8571 35.0139 13.9953C35.0479 14.1335 35.12 14.2595 35.2219 14.3589L36.7052 15.805ZM35.5167 13.7357C35.5306 13.691 35.557 13.6513 35.5928 13.6211C35.6285 13.591 35.6722 13.5717 35.7185 13.5655L37.7684 13.2676C37.8908 13.2499 38.0071 13.2026 38.1072 13.1299C38.2072 13.0571 38.2881 12.9611 38.3428 12.8502L39.2597 10.9929C39.2803 10.951 39.3123 10.9157 39.3519 10.891C39.3916 10.8664 39.4373 10.8533 39.484 10.8533C39.5307 10.8533 39.5765 10.8664 39.6161 10.891C39.6558 10.9157 39.6878 10.951 39.7084 10.9929L40.6249 12.8502C40.6796 12.9611 40.7605 13.0571 40.8606 13.1299C40.9607 13.2026 41.077 13.2499 41.1994 13.2676L43.2493 13.5655C43.2955 13.5722 43.3389 13.5917 43.3746 13.6218C43.4103 13.6519 43.4369 13.6914 43.4513 13.7358C43.4657 13.7802 43.4674 13.8278 43.4561 13.8731C43.4449 13.9184 43.4212 13.9597 43.3878 13.9922L41.9045 15.438C41.816 15.5243 41.7497 15.6309 41.7115 15.7485C41.6733 15.8662 41.6643 15.9913 41.6852 16.1132L42.0353 18.1546C42.0432 18.2007 42.0381 18.248 42.0205 18.2912C42.0029 18.3344 41.9736 18.3719 41.9358 18.3993C41.8981 18.4268 41.8534 18.4431 41.8068 18.4465C41.7603 18.4498 41.7137 18.4401 41.6724 18.4184L39.839 17.4546C39.7296 17.397 39.6077 17.3669 39.484 17.3669C39.3602 17.3669 39.2384 17.397 39.1289 17.4546L37.2956 18.4184C37.2543 18.4401 37.2077 18.4499 37.1611 18.4465C37.1146 18.4431 37.0699 18.4268 37.0321 18.3994C36.9944 18.3719 36.965 18.3345 36.9475 18.2912C36.9299 18.248 36.9248 18.2006 36.9328 18.1546L37.2829 16.1132C37.3038 15.9913 37.2947 15.8662 37.2565 15.7485C37.2182 15.6309 37.152 15.5243 37.0634 15.438L35.5801 13.9921C35.5463 13.9598 35.5224 13.9185 35.5112 13.873C35.5001 13.8276 35.5021 13.78 35.5171 13.7357H35.5167Z" fill="#D6585B"/>
<path d="M7.24625 21.8022C7.36184 21.7189 7.45162 21.6047 7.50529 21.4727C7.55897 21.3407 7.57436 21.1962 7.54971 21.0559L7.19958 19.0143C7.19277 18.9744 7.19576 18.9334 7.20829 18.8948C7.22082 18.8563 7.24251 18.8214 7.2715 18.7931L8.75471 17.3474C8.8567 17.248 8.92884 17.1221 8.96297 16.9838C8.9971 16.8456 8.99186 16.7005 8.94784 16.5651C8.90382 16.4296 8.82277 16.3092 8.71387 16.2174C8.60498 16.1257 8.47257 16.0662 8.33163 16.0458L6.28227 15.7479C6.24215 15.7421 6.20404 15.7267 6.17122 15.7029C6.13841 15.6791 6.11189 15.6476 6.09394 15.6113L5.17714 13.7538C5.11417 13.6261 5.01672 13.5186 4.89581 13.4434C4.7749 13.3682 4.63536 13.3284 4.49298 13.3284C4.35059 13.3284 4.21105 13.3682 4.09014 13.4434C3.96923 13.5186 3.87178 13.6261 3.80881 13.7538L2.89214 15.6113C2.8742 15.6476 2.84766 15.6791 2.81482 15.7029C2.78198 15.7267 2.74383 15.7422 2.70368 15.7479L0.654065 16.0458C0.513127 16.0662 0.38072 16.1257 0.271821 16.2174C0.162923 16.3092 0.0818798 16.4296 0.0378589 16.5651C-0.00616205 16.7005 -0.0114037 16.8456 0.0227268 16.9838C0.0568574 17.1221 0.128998 17.248 0.230988 17.3474L1.71432 18.7929C1.74336 18.8213 1.76508 18.8562 1.77763 18.8948C1.79018 18.9333 1.79318 18.9744 1.78637 19.0143L1.43612 21.0559C1.41168 21.1963 1.42711 21.3407 1.48063 21.4728C1.53415 21.6048 1.62363 21.7192 1.73891 21.803C1.85419 21.8868 1.99065 21.9366 2.13279 21.9467C2.27493 21.9568 2.41706 21.9268 2.54304 21.8602L4.37637 20.8964C4.41229 20.8775 4.45227 20.8676 4.49285 20.8676C4.53343 20.8676 4.5734 20.8775 4.60932 20.8964L6.44266 21.8602C6.56853 21.927 6.71068 21.957 6.8528 21.9467C6.99492 21.9365 7.13128 21.8864 7.24625 21.8022ZM4.13791 20.4424L2.30458 21.4063C2.26326 21.428 2.21669 21.4377 2.17013 21.4344C2.12357 21.431 2.07888 21.4147 2.04112 21.3872C2.00335 21.3598 1.97402 21.3223 1.95644 21.2791C1.93886 21.2359 1.93373 21.1886 1.94163 21.1425L2.29176 19.101C2.31262 18.9791 2.30356 18.854 2.26535 18.7363C2.22714 18.6187 2.16092 18.5121 2.0724 18.4258L0.589193 16.98C0.555765 16.9474 0.532119 16.9061 0.520927 16.8608C0.509736 16.8155 0.511447 16.768 0.525866 16.7236C0.540286 16.6792 0.566838 16.6397 0.602521 16.6096C0.638204 16.5795 0.681594 16.56 0.727783 16.5533L2.7774 16.2555C2.89986 16.2378 3.01616 16.1905 3.11627 16.1178C3.21638 16.045 3.29729 15.949 3.35201 15.8381L4.26868 13.9808C4.28932 13.9389 4.32128 13.9036 4.36093 13.8789C4.40058 13.8543 4.44634 13.8412 4.49304 13.8412C4.53974 13.8412 4.5855 13.8543 4.62515 13.8789C4.6648 13.9036 4.69676 13.9389 4.7174 13.9808L5.63394 15.8381C5.68865 15.949 5.76954 16.045 5.86962 16.1177C5.96971 16.1905 6.08599 16.2377 6.20842 16.2555L8.25817 16.5533C8.30436 16.56 8.34775 16.5795 8.38343 16.6096C8.41911 16.6397 8.44567 16.6792 8.46009 16.7236C8.4745 16.768 8.47622 16.8155 8.46502 16.8608C8.45383 16.9061 8.43019 16.9474 8.39676 16.98L6.91355 18.4259C6.82502 18.5122 6.7588 18.6188 6.72059 18.7364C6.68237 18.854 6.67332 18.9791 6.69419 19.101L7.04432 21.1425C7.05222 21.1886 7.04709 21.2359 7.02951 21.2791C7.01193 21.3223 6.9826 21.3598 6.94483 21.3872C6.90707 21.4147 6.86238 21.431 6.81582 21.4344C6.76926 21.4377 6.72269 21.428 6.68137 21.4063L4.84804 20.4424C4.73855 20.3848 4.61669 20.3547 4.49298 20.3547C4.36926 20.3547 4.2474 20.3848 4.13791 20.4424Z" fill="#D6585B"/>
<path d="M21.313 5.46463C21.342 5.49292 21.3638 5.52786 21.3763 5.56644C21.3888 5.60502 21.3918 5.64607 21.3849 5.68604L21.0348 7.72732C21.0107 7.86764 21.0264 8.0119 21.08 8.14378C21.1336 8.27567 21.2231 8.38992 21.3383 8.47361C21.4534 8.55731 21.5897 8.60711 21.7317 8.6174C21.8737 8.62768 22.0158 8.59803 22.1418 8.53181L23.9751 7.56783C24.011 7.54895 24.051 7.53908 24.0916 7.53908C24.1321 7.53908 24.1721 7.54895 24.208 7.56783L26.0413 8.53181C26.1673 8.59803 26.3094 8.62768 26.4514 8.6174C26.5934 8.60711 26.7297 8.55731 26.8448 8.47361C26.96 8.38992 27.0495 8.27567 27.1031 8.14378C27.1567 8.0119 27.1724 7.86764 27.1484 7.72732L26.7982 5.68604C26.7914 5.64607 26.7943 5.60502 26.8068 5.56645C26.8194 5.52788 26.8411 5.49293 26.8701 5.46463L28.3534 4.01886C28.4553 3.91946 28.5274 3.79352 28.5615 3.65527C28.5956 3.51703 28.5904 3.372 28.5464 3.23659C28.5023 3.10117 28.4213 2.98078 28.3124 2.88901C28.2036 2.79725 28.0712 2.73777 27.9303 2.71732L25.8809 2.4195C25.8408 2.41368 25.8026 2.39821 25.7698 2.3744C25.7369 2.3506 25.7104 2.31917 25.6923 2.28283L24.7758 0.425268C24.7128 0.297612 24.6153 0.190132 24.4944 0.11498C24.3735 0.0398274 24.2339 0 24.0916 0C23.9492 0 23.8097 0.0398274 23.6887 0.11498C23.5678 0.190132 23.4704 0.297612 23.4073 0.425268L22.4907 2.2827C22.4727 2.31906 22.4462 2.35051 22.4134 2.37434C22.3806 2.39818 22.3425 2.41367 22.3023 2.4195L20.2526 2.71796C20.1117 2.73841 19.9793 2.79789 19.8704 2.88965C19.7615 2.98142 19.6805 3.10181 19.6365 3.23723C19.5925 3.37264 19.5872 3.51767 19.6213 3.65591C19.6554 3.79416 19.7276 3.9201 19.8295 4.0195L21.313 5.46463ZM20.1244 3.39501C20.1384 3.35039 20.1648 3.31068 20.2006 3.28055C20.2363 3.25041 20.28 3.2311 20.3263 3.22488L22.3762 2.92706C22.4986 2.90922 22.6148 2.86191 22.7148 2.78919C22.8149 2.71647 22.8958 2.62053 22.9505 2.50963L23.8672 0.652191C23.8879 0.610346 23.9198 0.575118 23.9595 0.550486C23.9991 0.525855 24.0449 0.512801 24.0916 0.512801C24.1382 0.512801 24.184 0.525855 24.2236 0.550486C24.2633 0.575118 24.2952 0.610346 24.3159 0.652191L25.2326 2.50976C25.2874 2.62066 25.3683 2.71659 25.4683 2.78929C25.5684 2.86198 25.6847 2.90927 25.8071 2.92706L27.8567 3.22488C27.9029 3.2316 27.9462 3.25109 27.9819 3.28116C28.0176 3.31123 28.0441 3.35068 28.0586 3.39505C28.073 3.43942 28.0747 3.48695 28.0636 3.53225C28.0524 3.57756 28.0288 3.61883 27.9954 3.65142L26.5122 5.09732C26.4236 5.18364 26.3574 5.29022 26.3191 5.40786C26.2809 5.5255 26.2719 5.65067 26.2928 5.77258L26.643 7.81399C26.6509 7.86001 26.6457 7.90732 26.6281 7.95058C26.6105 7.99383 26.5812 8.0313 26.5434 8.05875C26.5057 8.0862 26.461 8.10254 26.4144 8.10591C26.3678 8.10928 26.3212 8.09956 26.2799 8.07783L24.4466 7.11386C24.3371 7.05642 24.2153 7.02642 24.0916 7.02642C23.968 7.02642 23.8462 7.05642 23.7367 7.11386L21.9034 8.07783C21.862 8.09956 21.8154 8.10928 21.7689 8.10591C21.7223 8.10254 21.6776 8.0862 21.6398 8.05875C21.602 8.0313 21.5727 7.99383 21.5551 7.95058C21.5375 7.90732 21.5324 7.86001 21.5403 7.81399L21.8905 5.77258C21.9115 5.65066 21.9024 5.52548 21.8642 5.40784C21.8259 5.2902 21.7597 5.18363 21.671 5.09732L20.1877 3.65142C20.1538 3.61918 20.1298 3.5779 20.1186 3.53247C20.1074 3.48704 20.1094 3.43934 20.1244 3.39501Z" fill="#D6585B"/>
</g>
<defs>
<clipPath id="clip0_19_409">
<rect width="60" height="60" fill="white"/>
</clipPath>
</defs>
</svg>
