<svg width="60" height="60" viewBox="0 0 60 60" fill="none" xmlns="http://www.w3.org/2000/svg">
<g clip-path="url(#clip0_19_377)">
<path d="M52.4405 7.53271L54.0944 9.28346L56.4168 10.6265C56.4168 10.6265 57.1354 14.743 54.8626 21.1067C52.5898 27.4704 44.1037 52.3791 44.1037 52.3791L12.2728 53.4612L4.38672 46.4228L40.064 6.17798L52.4405 7.53271Z" fill="#FFF3F4"/>
<path d="M59.5248 14.337L45.9942 52.3854C45.7116 53.1545 45.1952 53.8157 44.5176 54.2763C43.84 54.7369 43.0351 54.9737 42.216 54.9534L9.38806 54.4366C8.75936 54.429 8.14148 54.272 7.58535 53.9787C7.02921 53.6854 6.55074 53.2641 6.18937 52.7496L0.921464 45.1407C0.548611 44.6047 0.32331 43.9801 0.268177 43.3295C0.213045 42.679 0.330021 42.0254 0.607364 41.4343L17.7418 4.91924C18.039 4.30004 18.4931 3.76948 19.059 3.38035C19.625 2.99122 20.2829 2.7571 20.9674 2.70131L48.8441 0.271839C49.4157 0.222536 49.9912 0.295073 50.5326 0.484657V0.48594C51.0675 0.672298 51.556 0.97189 51.9646 1.36427L52.2133 1.60388C52.7389 2.10356 53.1075 2.7456 53.2739 3.45144C53.4404 4.15729 53.3975 4.89635 53.1505 5.5782L52.4403 7.53332L51.8018 9.28856L39.1558 44.0868C38.8685 44.8526 38.3532 45.5116 37.6793 45.975C37.0055 46.4384 36.2056 46.6837 35.3878 46.6778L10.0522 46.7112C8.91114 46.7125 8.19704 47.9163 8.77396 48.8715C9.18813 49.5695 9.64364 50.242 10.1381 50.8856C10.2808 51.0666 10.4633 51.2123 10.6714 51.3114C10.8795 51.4105 11.1076 51.4604 11.338 51.4573L40.0301 51.1446C40.8601 51.1442 41.6693 50.885 42.3451 50.4031C43.0209 49.9212 43.5297 49.2406 43.8006 48.456L55.3313 13.8269C55.5723 13.1001 55.611 12.3214 55.4432 11.5742C55.2754 10.8271 54.9074 10.1398 54.3787 9.58586L54.0941 9.28343L55.8018 9.28086C56.3353 9.27884 56.8639 9.38296 57.3569 9.58714C57.8456 9.78936 58.2883 10.0886 58.6581 10.4668C59.1523 10.9648 59.4958 11.5923 59.6491 12.277C59.8024 12.9617 59.7593 13.6757 59.5248 14.337Z" fill="#FF8F91"/>
<path d="M50.5329 0.484535V0.485817L36.319 40.3843C36.0381 41.1493 35.5298 41.8099 34.8624 42.2774C34.195 42.745 33.4005 42.997 32.5857 42.9997L12.0217 43.233L0.271836 43.3663C0.208245 42.7039 0.324274 42.0365 0.60773 41.4343L17.7422 4.91924C18.0393 4.30005 18.4935 3.76948 19.0594 3.38036C19.6253 2.99123 20.2833 2.75711 20.9678 2.70131L31.4703 1.78606L48.8445 0.271717C49.416 0.222414 49.9915 0.294951 50.5329 0.484535Z" fill="#FFBBBC"/>
<path d="M27.3485 46.688C27.2664 50.4123 26.5587 65.7878 20.5254 57.1123C19.4639 58.1405 18.2844 59.1315 17.337 59.543C15.1665 60.4866 14.2152 58.3855 18.6755 46.6995L27.3485 46.688Z" fill="#FFAEB0"/>
<path d="M20.5253 57.1122C19.4638 58.1404 18.2843 59.1314 17.3369 59.5429C17.3679 57.754 17.9395 56.0163 18.9766 54.5583C19.4453 55.4376 19.9623 56.2902 20.5253 57.1122Z" fill="#FF797C"/>
<path d="M31.4703 1.78589L12.0217 43.2328L0.271836 43.3662C0.208245 42.7037 0.324274 42.0363 0.60773 41.4341L17.7422 4.91907C18.0393 4.29988 18.4935 3.76931 19.0594 3.38018C19.6253 2.99105 20.2833 2.75694 20.9678 2.70114L31.4703 1.78589Z" fill="#FFE6E7"/>
<path d="M55.8693 42.219C53.0887 40.7281 50.9307 37.8267 49.5548 34.2506C49.5139 34.0248 49.3949 33.8205 49.2188 33.6734C49.0426 33.5263 48.8204 33.4457 48.5909 33.4457C48.3614 33.4457 48.1392 33.5263 47.963 33.6734C47.7868 33.8205 47.6679 34.0248 47.627 34.2506C46.353 37.8639 44.0932 40.7281 41.3124 42.219C41.0958 42.3328 40.9183 42.509 40.8029 42.7248C40.6874 42.9405 40.6394 43.186 40.6649 43.4293C40.6656 43.4354 40.6663 43.4414 40.667 43.4473C40.6972 43.674 40.7807 43.8903 40.9105 44.0786C41.0403 44.2669 41.2129 44.4217 41.4141 44.5305C44.0887 46.0038 46.273 48.7528 47.5444 52.213C47.6051 52.4443 47.7407 52.6489 47.9301 52.795C48.1194 52.941 48.3518 53.0202 48.5909 53.0202C48.83 53.0202 49.0624 52.941 49.2517 52.795C49.441 52.6489 49.5766 52.4443 49.6374 52.213C50.9093 48.7528 53.0931 46.0038 55.7677 44.5305C55.9689 44.4217 56.1414 44.2669 56.2713 44.0786C56.4011 43.8903 56.4845 43.674 56.5147 43.4473C56.5155 43.4414 56.5163 43.4354 56.5169 43.4293C56.5424 43.186 56.4943 42.9405 56.3789 42.7248C56.2635 42.509 56.086 42.3328 55.8693 42.219Z" fill="#FFDDDE"/>
<path d="M16.5027 19.7911C14.7068 18.8283 13.3131 16.9543 12.4245 14.6447C12.3778 14.5092 12.2948 14.389 12.1845 14.2974C12.0743 14.2057 11.941 14.146 11.7992 14.1249C11.6582 14.1467 11.526 14.2067 11.4167 14.2983C11.3075 14.39 11.2254 14.5098 11.1794 14.6447C10.3566 16.9781 8.89739 18.8283 7.10125 19.7911C6.96129 19.8646 6.84662 19.9785 6.77206 20.1179C6.69751 20.2573 6.6665 20.4159 6.68305 20.5732C6.68305 20.577 6.68395 20.5808 6.68433 20.5847C6.70387 20.7311 6.75778 20.8708 6.84165 20.9924C6.92552 21.1139 7.03697 21.2139 7.16689 21.2842C8.89419 22.2357 10.3047 24.0112 11.1261 26.2457C11.1768 26.3883 11.2675 26.5133 11.3874 26.6057C11.5072 26.6982 11.6512 26.7541 11.802 26.7669C11.9528 26.7541 12.0968 26.6982 12.2166 26.6057C12.3365 26.5133 12.4272 26.3883 12.4779 26.2457C13.2993 24.0108 14.7098 22.2353 16.4372 21.2842C16.5671 21.2139 16.6785 21.1139 16.7624 20.9923C16.8462 20.8708 16.9001 20.7311 16.9196 20.5847L16.9209 20.5732C16.9375 20.4159 16.9065 20.2573 16.8319 20.1179C16.7573 19.9785 16.6427 19.8646 16.5027 19.7911Z" fill="#FFDDDE"/>
<path d="M58.8421 10.2878C58.4484 9.88427 57.9766 9.56525 57.4556 9.35021C56.9308 9.13477 56.369 9.02406 55.8017 9.02432L54.2046 9.02662L52.7355 7.47164L53.3916 5.66576C53.6536 4.93704 53.6986 4.14798 53.5211 3.39421C53.3436 2.64045 52.9513 1.95436 52.3916 1.41913L52.1425 1.17951C51.7041 0.759939 51.1809 0.439067 50.6082 0.238458C50.0355 0.0378484 49.4264 -0.0378515 48.822 0.0164451L20.9452 2.44578C20.2161 2.50626 19.5155 2.75627 18.9128 3.17102C18.3101 3.58578 17.8263 4.15086 17.5094 4.81025L12.7909 14.8677C12.7479 14.7635 12.7046 14.6594 12.6636 14.5527C12.5995 14.3721 12.4867 14.2128 12.3378 14.0922C12.1889 13.9716 12.0095 13.8945 11.8195 13.8694C11.8009 13.8678 11.7821 13.8684 11.7635 13.8711C11.5758 13.8988 11.3995 13.9777 11.2537 14.0992C11.108 14.2207 10.9986 14.3799 10.9375 14.5595C10.1294 16.8527 8.7234 18.6304 6.97995 19.5651C6.79434 19.6622 6.64239 19.8132 6.54402 19.9981C6.44565 20.1831 6.40545 20.3935 6.42868 20.6017C6.42868 20.6024 6.43022 20.6145 6.43022 20.6156C6.45474 20.8023 6.52309 20.9805 6.62969 21.1357C6.73629 21.2909 6.87811 21.4187 7.04354 21.5086C7.76135 21.9118 8.40645 22.4326 8.95199 23.0492L0.375396 41.3253C0.079712 41.958 -0.0440994 42.6573 0.0164246 43.353C0.0164246 43.3584 0.0150144 43.3635 0.0150144 43.369C0.01564 43.3924 0.0194794 43.4156 0.0264246 43.4379C0.0964357 44.1017 0.331916 44.7373 0.71129 45.2866L5.97919 52.8955C6.36385 53.4435 6.87322 53.8922 7.46533 54.2048C8.05744 54.5173 8.71533 54.6846 9.38481 54.693L15.7437 54.793C14.8521 58.4597 15.3378 59.448 15.9046 59.822C16.0912 59.9425 16.3097 60.0043 16.5318 59.9995C17.4213 59.9995 18.7269 59.1741 20.488 57.5029C21.8939 59.4522 23.1084 60.2413 24.1946 59.9131C25.5068 59.5173 26.3174 57.4444 26.8177 54.9661L42.2118 55.2088H42.2844C43.1454 55.2165 43.9875 54.9572 44.6952 54.4667C45.4028 53.9763 45.9411 53.2786 46.236 52.4697L46.7617 50.9904C46.9564 51.4136 47.1369 51.8501 47.3033 52.2998C47.399 52.567 47.5695 52.8009 47.7946 52.9737C48.0197 53.1465 48.2898 53.2508 48.5725 53.2742H48.5909C48.5909 53.2742 48.6037 53.2742 48.6093 53.2742C48.8921 53.2508 49.1622 53.1465 49.3872 52.9737C49.6123 52.8009 49.7829 52.567 49.8786 52.2998C51.1371 48.8768 53.2726 46.1963 55.892 44.7535C56.1286 44.6251 56.3316 44.4425 56.4841 44.2206C56.6367 43.9987 56.7346 43.7439 56.7698 43.477C56.7698 43.477 56.7722 43.4577 56.7724 43.4571C56.8049 43.1625 56.7478 42.865 56.6084 42.6034C56.469 42.3419 56.2538 42.1285 55.9911 41.9913C54.2976 41.0834 52.7693 39.5764 51.5198 37.6143L59.7667 14.423C60.0188 13.7167 60.0658 12.9535 59.9021 12.2217C59.7385 11.4899 59.371 10.8194 58.8421 10.2878ZM53.9079 9.45957L53.9093 9.46072L54.1925 9.76175C54.6886 10.2825 55.0339 10.9281 55.1917 11.6298C55.3495 12.3315 55.3137 13.0629 55.0883 13.7458L48.6137 33.1908L48.6069 33.19C48.5883 33.1885 48.5695 33.1891 48.551 33.1917C48.2859 33.2311 48.0368 33.343 47.8311 33.5149C47.6254 33.6868 47.4711 33.9121 47.3853 34.166C46.1213 37.7498 43.9217 40.5297 41.1912 41.9935C40.9285 42.1307 40.7133 42.344 40.5739 42.6056C40.4345 42.8671 40.3774 43.1647 40.4101 43.4593C40.4101 43.4593 40.4124 43.4785 40.4124 43.4792C40.4476 43.7461 40.5455 44.0009 40.6981 44.2228C40.8507 44.4446 41.0536 44.6272 41.2903 44.7557C42.3141 45.3282 43.2435 46.0553 44.0455 46.9113L43.5575 48.3756C43.3041 49.11 42.8277 49.7469 42.1949 50.1973C41.562 50.6478 40.8043 50.8895 40.0275 50.8884L27.3668 51.0252C27.5079 49.484 27.5707 48.0315 27.5986 46.9439L35.3883 46.9336C36.2584 46.9383 37.1091 46.6763 37.8258 46.1829C38.5425 45.6895 39.0909 44.9883 39.397 44.1738L52.5393 8.01099L53.9079 9.45957ZM7.29046 21.0595C7.19485 21.0078 7.11296 20.934 7.05159 20.8442C6.99023 20.7545 6.95116 20.6514 6.93765 20.5436C6.92746 20.4375 6.94908 20.3308 6.99977 20.237C7.05046 20.1433 7.12791 20.0667 7.22226 20.0172C9.07878 19.0218 10.5699 17.1441 11.4211 14.7302C11.4501 14.6451 11.5003 14.5688 11.5669 14.5084C11.6334 14.448 11.7142 14.4055 11.8017 14.3848C11.8903 14.4059 11.9721 14.4494 12.0392 14.511C12.1062 14.5727 12.1565 14.6504 12.185 14.737C13.1466 17.2346 14.5972 19.0605 16.3814 20.0172C16.4769 20.0678 16.555 20.1461 16.6056 20.2417C16.6561 20.3373 16.6768 20.4458 16.6649 20.5533C16.6503 20.6594 16.6109 20.7606 16.5498 20.8485C16.4887 20.9365 16.4077 21.0088 16.3133 21.0595C14.5325 22.0404 13.0849 23.8507 12.2364 26.1574C12.2037 26.2507 12.1457 26.333 12.0689 26.3953C11.992 26.4575 11.8994 26.4971 11.8013 26.5097C11.7033 26.4971 11.6106 26.4575 11.5338 26.3953C11.4569 26.333 11.3989 26.2507 11.3662 26.1574C10.5189 23.8509 9.07122 22.0404 7.29046 21.0595ZM0.839623 41.5431L9.3157 23.4801C9.98577 24.3431 10.5156 25.3063 10.8858 26.3343C10.9536 26.5231 11.0742 26.6883 11.2334 26.8104C11.3925 26.9325 11.5834 27.0063 11.7832 27.0229H11.8017C11.8017 27.0229 11.8145 27.0229 11.8202 27.0229C12.0202 27.0064 12.2112 26.9327 12.3705 26.8106C12.5297 26.6885 12.6504 26.5232 12.7182 26.3343C13.5235 24.1437 14.888 22.4298 16.5605 21.5086C16.7257 21.4189 16.8673 21.2915 16.9738 21.1367C17.0804 20.9819 17.1488 20.8041 17.1735 20.6178C17.1735 20.6164 17.1753 20.6036 17.1754 20.6023C17.1987 20.394 17.1586 20.1835 17.0602 19.9984C16.9618 19.8133 16.8098 19.6623 16.6241 19.5651C15.201 18.8022 13.9604 17.3728 13.0663 15.4882L17.9745 5.02768C18.2531 4.4495 18.6779 3.95417 19.2069 3.59079C19.7359 3.22741 20.3507 3.00859 20.9903 2.95604L31.0492 2.07938L11.858 42.978L0.508985 43.107C0.495819 42.5671 0.609044 42.0315 0.839623 41.5431ZM9.39263 54.1803C8.8046 54.1733 8.22666 54.0267 7.70641 53.7526C7.18617 53.4784 6.73852 53.0845 6.40034 52.6034L1.13231 44.9945C0.845645 44.5824 0.651227 44.1133 0.562317 43.6193L12.0186 43.4892H12.0213H12.024L32.5879 43.2556C33.4548 43.2509 34.2996 42.9818 35.0094 42.4843C35.7192 41.9867 36.2603 41.2843 36.5602 40.471L48.2573 7.63882C48.2689 7.60702 48.2742 7.57323 48.2727 7.5394C48.2712 7.50558 48.263 7.47238 48.2486 7.44173C48.2342 7.41108 48.2139 7.38358 48.1888 7.36083C48.1638 7.33807 48.1344 7.3205 48.1025 7.30914C48.0706 7.29778 48.0368 7.29285 48.003 7.29464C47.9692 7.29642 47.9361 7.30489 47.9055 7.31954C47.875 7.33419 47.8477 7.35475 47.8252 7.38002C47.8026 7.40529 47.7853 7.43477 47.7742 7.46677L36.0779 40.2989C35.8134 41.0137 35.337 41.6307 34.7124 42.0675C34.0879 42.5043 33.3448 42.7401 32.5827 42.7433L12.4275 42.9716L31.6395 2.02861L48.8665 0.52721C49.398 0.479307 49.9336 0.545681 50.4373 0.721874C50.941 0.898067 51.4011 1.18 51.7869 1.54874L52.0357 1.78861C52.5239 2.25497 52.8663 2.85293 53.0214 3.51001C53.1766 4.16708 53.1377 4.85505 52.9097 5.4905L51.561 9.20073L38.9149 43.9997C38.6449 44.7154 38.1621 45.3313 37.5315 45.7644C36.9008 46.1974 36.1527 46.4269 35.3877 46.4218L18.6665 46.4439L10.0522 46.4552C9.7429 46.4519 9.43838 46.5318 9.17058 46.6867C8.90277 46.8415 8.68154 47.0655 8.53007 47.3353C8.38413 47.5901 8.3094 47.8794 8.31371 48.173C8.31802 48.4666 8.4012 48.7537 8.55456 49.0041C8.97439 49.7108 9.43579 50.3919 9.93634 51.0438C10.1018 51.2528 10.3123 51.4216 10.5522 51.5376C10.7922 51.6536 11.0552 51.7138 11.3217 51.7137H11.3409L16.6435 51.6561C16.3253 52.6473 16.071 53.5182 15.8721 54.2824L9.39263 54.1803ZM18.3034 46.9567C17.704 48.5396 17.2118 49.9261 16.8113 51.1413L11.3354 51.2007C11.1445 51.203 10.9556 51.1616 10.7832 51.0796C10.6108 50.9977 10.4594 50.8774 10.3406 50.7279C9.85264 50.0921 9.40288 49.4279 8.99366 48.7387C8.88771 48.5659 8.83023 48.3677 8.82726 48.165C8.82428 47.9622 8.87591 47.7624 8.97673 47.5866C9.0841 47.3964 9.24064 47.2385 9.42994 47.1296C9.61925 47.0207 9.83436 46.9647 10.0527 46.9675L18.3034 46.9567ZM26.824 51.2991C26.7086 52.4771 26.5548 53.6068 26.3594 54.6324C26.3539 54.6502 26.3504 54.6686 26.3489 54.6871C25.8603 57.224 25.1138 59.1015 24.0465 59.4232C23.1678 59.6881 22.0541 58.8616 20.7359 56.9663C20.1789 56.1519 19.6671 55.3075 19.2025 54.437C19.1865 54.4074 19.1647 54.3813 19.1386 54.3601C19.1124 54.3389 19.0823 54.323 19.05 54.3135C19.0178 54.3039 18.9839 54.3008 18.9504 54.3043C18.9169 54.3078 18.8845 54.3179 18.8549 54.3339C18.8253 54.35 18.7991 54.3717 18.7779 54.3979C18.7567 54.4241 18.7409 54.4541 18.7313 54.4864C18.7217 54.5187 18.7186 54.5526 18.7221 54.5861C18.7256 54.6195 18.7357 54.652 18.7518 54.6816C19.2497 55.5997 19.733 56.4038 20.1914 57.079C17.4233 59.7185 16.4703 59.582 16.1873 59.3956C15.5694 58.9879 15.1001 56.826 18.8528 46.9575L27.0862 46.9467C27.0493 48.3732 26.9667 49.8313 26.8318 51.2251C26.8262 51.246 26.8233 51.2676 26.8232 51.2892C26.8227 51.2919 26.8238 51.2954 26.824 51.2991ZM45.7527 52.2991C45.4931 53.0081 45.0202 53.6193 44.3991 54.0486C43.778 54.4779 43.0391 54.7042 42.2841 54.6965C42.2629 54.6965 42.2414 54.6965 42.22 54.6965L26.9156 54.4552C27.088 53.5055 27.2186 52.511 27.3173 51.5387L40.0324 51.4004C40.916 51.4004 41.7776 51.1244 42.4968 50.611C43.216 50.0975 43.7569 49.3723 44.0439 48.5365L44.4413 47.3455C45.228 48.2614 45.9016 49.2686 46.4474 50.3455L45.7527 52.2991ZM55.748 42.4443C55.9188 42.5345 56.059 42.6735 56.1505 42.8436C56.2421 43.0137 56.2809 43.2073 56.2621 43.3995L56.5168 43.4288L56.2604 43.4159C56.2352 43.6023 56.1662 43.7801 56.0592 43.9347C55.9521 44.0894 55.81 44.2165 55.6444 44.3057C52.9167 45.8081 50.6982 48.5849 49.397 52.1243C49.3543 52.306 49.2515 52.4679 49.1052 52.5837C48.9589 52.6996 48.7778 52.7626 48.5912 52.7626C48.4046 52.7626 48.2235 52.6996 48.0772 52.5837C47.9309 52.4679 47.8281 52.306 47.7854 52.1243C46.4844 48.5849 44.2657 45.8081 41.5381 44.3057C41.3725 44.2165 41.2303 44.0894 41.1232 43.9348C41.0161 43.7801 40.9471 43.6024 40.9218 43.4159L40.6674 43.4471L40.9199 43.3999C40.9011 43.2076 40.9399 43.0141 41.0315 42.844C41.123 42.6739 41.2632 42.5349 41.434 42.4447C44.2775 40.9203 46.5622 38.0405 47.8691 34.3358C47.9224 34.1761 48.0173 34.0334 48.144 33.9225C48.2707 33.8116 48.4246 33.7364 48.59 33.7046C48.7562 33.7381 48.9107 33.8147 49.0381 33.9266C49.1655 34.0386 49.2612 34.182 49.3157 34.3426C50.7911 38.1782 53.0156 40.9798 55.748 42.4448V42.4443ZM59.2828 14.2512L51.1753 37.052C50.6377 36.1263 50.1757 35.1586 49.7939 34.1585C49.6698 33.8134 49.4232 33.526 49.101 33.3508L55.5753 13.9081C55.8211 13.1652 55.8681 12.3709 55.7115 11.6043C55.5549 10.8376 55.2001 10.1253 54.6826 9.53842L55.8026 9.53675H55.8121C56.3084 9.53559 56.8001 9.63299 57.2585 9.82329C57.7157 10.0119 58.1297 10.2917 58.4752 10.6456C58.9366 11.1089 59.2574 11.6935 59.4003 12.3316C59.5433 12.9697 59.5025 13.6353 59.2828 14.2512Z" fill="#D6585B"/>
</g>
<defs>
<clipPath id="clip0_19_377">
<rect width="60" height="60" fill="white"/>
</clipPath>
</defs>
</svg>
