<svg width="60" height="60" viewBox="0 0 60 60" fill="none" xmlns="http://www.w3.org/2000/svg">
<g clip-path="url(#clip0_19_389)">
<path d="M59.732 54.1026C59.7085 54.2956 59.6452 54.4816 59.5461 54.6488L58.832 55.8501C58.707 56.06 58.5297 56.2339 58.3173 56.3545C58.1049 56.4752 57.8647 56.5386 57.6204 56.5385H38.6436C38.444 56.5385 38.2468 56.5809 38.0649 56.6629C37.883 56.7449 37.7206 56.8647 37.5884 57.0142C34.0372 61.0629 30.6551 58.1654 29.5449 56.9795C29.4132 56.8401 29.2544 56.7291 29.0782 56.6532C28.9021 56.5774 28.7123 56.5383 28.5205 56.5385H7.01157C6.68117 56.5386 6.36125 56.4226 6.1077 56.2107C5.85415 55.9989 5.68309 55.7047 5.62439 55.3795L0.278248 25.6437C0.218861 25.31 0.281184 24.9661 0.453889 24.6745L1.19748 23.4232C1.3154 23.2246 1.48054 23.0581 1.67825 22.9386V22.9373C1.92131 22.791 2.20264 22.7209 2.48594 22.736L49.6563 25.3194C49.9408 25.3351 50.2138 25.4366 50.4395 25.6105C50.6651 25.7844 50.8328 26.0226 50.9204 26.2937L59.6754 53.4975C59.7387 53.6926 59.758 53.8992 59.732 54.1026Z" fill="#FF8F91"/>
<path d="M59.732 54.1026C59.7085 54.2956 59.6452 54.4816 59.5461 54.6488L58.832 55.8501C58.707 56.06 58.5297 56.2339 58.3173 56.3546C58.1049 56.4753 57.8647 56.5387 57.6204 56.5385H38.6436C38.444 56.5385 38.2468 56.581 38.0649 56.663C37.883 56.745 37.7206 56.8647 37.5884 57.0142C34.0372 61.0629 30.6551 58.1654 29.5449 56.9796C29.4132 56.8401 29.2544 56.7291 29.0782 56.6532C28.9021 56.5774 28.7123 56.5384 28.5205 56.5385H7.01157C6.68117 56.5386 6.36125 56.4226 6.1077 56.2107C5.85415 55.9989 5.68309 55.7047 5.62439 55.3796L0.278248 25.6437C0.218861 25.31 0.281184 24.9661 0.453889 24.6745L1.19748 23.4232C1.3154 23.2246 1.48054 23.0581 1.67825 22.9386L7.07182 52.9426C7.13042 53.2679 7.30141 53.5623 7.55495 53.7744C7.80849 53.9864 8.12847 54.1027 8.459 54.1029H28.95C29.1418 54.1023 29.3318 54.1411 29.508 54.217C29.6842 54.2929 29.8429 54.4041 29.9743 54.5439C31.0846 55.7285 34.4666 58.626 38.0179 54.5785C38.1498 54.4287 38.3121 54.3088 38.4941 54.2267C38.6761 54.1447 38.8734 54.1025 39.073 54.1029L59.732 54.1026Z" fill="#FF7C7F"/>
<path d="M56.9047 51.6308H38.2188C38.0031 51.6314 37.7898 51.6759 37.5918 51.7616C37.3939 51.8474 37.2155 51.9726 37.0676 52.1296C36.0701 53.186 33.4637 55.3039 30.774 52.1808C30.6259 52.0085 30.4424 51.8702 30.236 51.7753C30.0295 51.6803 29.805 51.6311 29.5778 51.6308H10.9984L5.30225 24.6681C5.30225 24.6681 16.5279 13.4425 27.5394 25.3719C27.5394 25.3719 36.9983 14.5719 48.7175 24.6655L56.9047 51.6308Z" fill="#FFE6E7"/>
<path d="M27.5397 25.3719L22.5493 19.881L29.0862 49.7046L33.7448 50.6039L27.5397 25.3719Z" fill="#FFBBBC"/>
<path d="M56.9048 51.6308H38.219C38.0033 51.6313 37.7899 51.6758 37.592 51.7615C37.394 51.8473 37.2156 51.9725 37.0677 52.1295C36.0703 53.1859 33.4639 55.3038 30.7741 52.1808C30.6261 52.0085 30.4425 51.8701 30.2361 51.7752C30.0297 51.6803 29.8052 51.631 29.578 51.6308H10.9985C10.9985 51.6308 21.687 40.5205 33.7446 50.6039C33.7446 50.6039 46.0369 39.6744 56.9048 51.6308Z" fill="#FFBBBC"/>
<path d="M14.785 27.1862L18.6588 25.4746L15.5679 15.1511L11.4102 15.917C7.35229 23.4773 14.785 27.1862 14.785 27.1862Z" fill="#FFC5C6"/>
<path d="M18.6588 25.4739L30.0059 26.6106L24.3717 7.79333L15.5679 15.1511C13.5402 21.7811 18.6588 25.4739 18.6588 25.4739Z" fill="#FFA0A2"/>
<path d="M33.5217 28.4887C37.5381 26.9825 38.8023 20.45 36.3453 13.898C33.8883 7.34591 28.6405 3.25542 24.624 4.7616C20.6076 6.26777 19.3434 12.8003 21.8004 19.3523C24.2574 25.9044 29.5052 29.9948 33.5217 28.4887Z" fill="#FFC5C6"/>
<path d="M33.7729 24.7954C36.3036 23.8409 36.8994 19.2072 35.1036 14.4456C33.3079 9.68399 29.8005 6.59768 27.2698 7.55212C24.7391 8.50655 24.1433 13.1403 25.939 17.9019C27.7348 22.6635 31.2421 25.7498 33.7729 24.7954Z" fill="#FFEDED"/>
<path d="M40.0704 17.7192C39.9851 16.6847 40.8325 15.7511 42.0096 15.5833L50.3025 14.4006C51.5983 14.2157 52.7778 15.0255 52.8717 16.1646L52.9534 17.1548C53.0474 18.2938 52.0166 19.2858 50.7082 19.316L42.3334 19.5083C41.1448 19.5357 40.1557 18.7537 40.0704 17.7192Z" fill="#FFEDED"/>
<path d="M38.0949 8.22472C37.622 7.30062 38.0502 6.1146 39.0745 5.51127L46.2925 1.25935C47.4207 0.594996 48.8192 0.894611 49.3399 1.91204L49.7926 2.79666C50.3132 3.81409 49.738 5.12396 48.5395 5.65011L40.8687 9.01665C39.7802 9.49459 38.5679 9.1478 38.0949 8.22472Z" fill="#FFEDED"/>
<path d="M59.9194 53.419L51.1642 26.2148C51.0594 25.8951 50.8609 25.6144 50.5944 25.409C50.328 25.2037 50.0059 25.0832 49.6701 25.0633L49.0969 25.032L48.963 24.591C48.9489 24.5444 48.9217 24.5028 48.8848 24.4711C45.3297 21.4094 41.6215 19.9455 37.8616 20.113C37.7972 17.9161 37.358 15.7463 36.5631 13.6973C34.9564 9.48114 32.1726 6.15589 29.1165 4.80166C27.4849 4.07858 25.8812 3.98615 24.4791 4.53384C22.2695 5.39717 20.875 7.73217 20.4475 10.739L15.455 14.9116L11.3635 15.665C11.3257 15.6719 11.2899 15.6873 11.2589 15.7099C11.2278 15.7325 11.2022 15.7619 11.184 15.7957C10.1747 17.6765 9.77991 19.4802 10.0021 21.1752C9.05797 21.6254 8.15099 22.1497 7.28966 22.7432L2.4998 22.48C2.19589 22.463 1.89316 22.5297 1.62459 22.673C1.35602 22.8162 1.13192 23.0304 0.976722 23.2923L0.233134 24.5435C0.028861 24.8881 -0.044845 25.2946 0.0254422 25.6889L5.37158 55.4249C5.44056 55.8094 5.64265 56.1574 5.94245 56.4079C6.24226 56.6584 6.62065 56.7954 7.01132 56.7949H28.5203C28.6769 56.7949 28.832 56.8268 28.9759 56.8887C29.1199 56.9506 29.2497 57.0411 29.3574 57.1549C30.1296 57.9796 31.7138 59.3522 33.702 59.3521H33.772C35.1902 59.3291 36.5391 58.5995 37.7806 57.1841C37.8886 57.0618 38.0214 56.9639 38.1701 56.8969C38.3189 56.8299 38.4802 56.7953 38.6433 56.7954H57.6202C57.9088 56.7948 58.1923 56.7195 58.4432 56.5769C58.6941 56.4343 58.9038 56.2292 59.052 55.9815L59.7662 54.7801C59.8869 54.5772 59.963 54.3508 59.9895 54.1161C60.0159 53.8814 59.992 53.6437 59.9194 53.419ZM37.864 20.6264C41.4786 20.4571 45.0521 21.8652 48.4941 24.8112L56.3474 50.6776C54.029 48.3571 51.4821 46.8436 48.7621 46.1776C46.347 45.5859 43.7962 45.6563 41.1801 46.387C37.5118 47.4117 34.7981 49.4155 33.8954 50.1434L28.4879 28.1549C28.676 28.2543 28.8652 28.3462 29.0555 28.4307C29.9137 28.8263 30.8453 29.0375 31.7901 29.0507C32.4408 29.0534 33.0862 28.9339 33.6928 28.6985C36.3419 27.6635 37.8202 24.5137 37.864 20.6264ZM56.3151 51.3744H38.2189C37.9684 51.3754 37.7206 51.4272 37.4907 51.5267C37.2608 51.6263 37.0534 51.7715 36.8813 51.9535C36.3105 52.5578 35.1563 53.5607 33.7841 53.5607C33.7627 53.5607 33.7413 53.5607 33.72 53.5607C32.7584 53.5387 31.8333 53.0183 30.9686 52.0141C30.7965 51.8137 30.5832 51.6529 30.3432 51.5425C30.1032 51.4322 29.8422 51.3751 29.5781 51.375H11.6438C12.5735 50.5399 14.855 48.6932 17.955 47.5717C23.403 45.6007 28.6601 46.6871 33.58 50.8013C33.5814 50.8025 33.5831 50.8032 33.5845 50.8044C33.5909 50.8093 33.5975 50.8139 33.6043 50.8181C33.6098 50.8221 33.6155 50.8257 33.6214 50.8291C33.6285 50.8328 33.6358 50.8362 33.6432 50.8391C33.6521 50.8431 33.6613 50.8465 33.6706 50.8494C33.681 50.8528 33.6917 50.8555 33.7024 50.8575C33.7086 50.8584 33.7152 50.8584 33.7211 50.859C33.727 50.8596 33.7364 50.8609 33.7443 50.8609H33.7458C33.7643 50.8607 33.7828 50.8584 33.8009 50.8543H33.8058C33.8097 50.8534 33.8131 50.8514 33.8169 50.8503C33.827 50.8474 33.8369 50.8439 33.8465 50.8399C33.8526 50.8372 33.8583 50.8343 33.8642 50.8312C33.8725 50.8268 33.8805 50.822 33.8882 50.8167C33.8941 50.8127 33.8999 50.8084 33.9055 50.8039C33.9086 50.8014 33.9119 50.7996 33.9149 50.7969C33.9452 50.7699 37.007 48.0813 41.3348 46.8773C46.9356 45.3179 51.9724 46.8317 56.3151 51.3744ZM20.9281 10.9134C20.9281 10.9097 20.9291 10.9059 20.9294 10.9022C21.3103 8.03537 22.6005 5.81832 24.6656 5.01153C25.2128 4.79947 25.795 4.69205 26.3818 4.69486C27.2551 4.7081 28.1159 4.90415 28.9087 5.27038C31.8426 6.57089 34.5254 9.78883 36.0838 13.8798C38.5228 20.2793 37.3659 26.7132 33.5063 28.2207C32.234 28.7178 30.7669 28.6283 29.2633 27.9619C28.912 27.8051 28.5711 27.626 28.2427 27.4257C28.2324 27.4185 28.2216 27.4121 28.2104 27.4066C27.592 27.0242 27.0119 26.5831 26.4781 26.0894C26.456 26.0573 26.4268 26.0306 26.3928 26.0115C24.6358 24.3723 23.1172 22.0526 22.0882 19.3524C20.9558 16.381 20.5995 13.4031 20.9281 10.9134ZM15.7909 15.2989L20.3627 11.4777C20.1503 13.918 20.5409 16.7325 21.6089 19.535C22.5689 22.0538 23.9491 24.2543 25.5564 25.9067L18.7562 25.2266C18.2317 24.8157 14.0049 21.276 15.7909 15.2989ZM11.5784 16.1465L15.2081 15.4783C14.3196 18.7956 15.2062 21.3489 16.1312 22.9285C16.6746 23.859 17.3634 24.6965 18.1716 25.4092L14.795 26.9008C14.2434 26.5939 11.6452 25.0242 10.7579 22.2247C10.1664 20.3577 10.4421 18.313 11.5784 16.1465ZM10.0923 21.7003C10.1402 21.9313 10.1996 22.1596 10.2704 22.3846C11.329 25.716 14.534 27.3476 14.6699 27.4153C14.7036 27.4321 14.7406 27.4413 14.7783 27.4422C14.816 27.4431 14.8534 27.4357 14.8878 27.4205L18.7001 25.7364L26.1488 26.4817C26.6817 26.9726 27.2583 27.4138 27.8715 27.7997L33.3133 49.9278C30.702 47.8849 27.9553 46.6496 25.1383 46.2568C22.7095 45.9179 20.2281 46.2002 17.7616 47.0955C15.32 48.0001 13.0762 49.368 11.1536 51.1239L5.58274 24.7546C6.93314 23.5273 8.45162 22.4989 10.0923 21.7003ZM59.3254 54.5176L58.6113 55.719C58.5087 55.8903 58.3635 56.0322 58.1898 56.1309C58.0162 56.2296 57.8199 56.2816 57.6202 56.2821H38.6433C38.4072 56.282 38.1739 56.3321 37.9587 56.4292C37.7435 56.5263 37.5515 56.6681 37.3954 56.8451C36.2531 58.1474 35.0311 58.8182 33.7636 58.8388C33.7431 58.8388 33.7225 58.8388 33.7022 58.8388C31.9073 58.8388 30.4469 57.5676 29.7314 56.8033C29.5756 56.6387 29.3878 56.5074 29.1796 56.4177C28.9713 56.328 28.747 56.2817 28.5203 56.2815H7.01132C6.74098 56.2819 6.47914 56.1871 6.27166 56.0138C6.06419 55.8405 5.92433 55.5997 5.87658 55.3336L0.530441 25.5989C0.481656 25.3257 0.53266 25.0441 0.674159 24.8053L1.41775 23.5541C1.52488 23.3726 1.6799 23.2242 1.86582 23.1251C2.05174 23.0259 2.26137 22.9799 2.47172 22.992L6.62556 23.22C6.0971 23.6091 5.59458 24.0322 5.1212 24.4867C5.09102 24.5169 5.06885 24.5541 5.0567 24.595C5.04454 24.6359 5.04278 24.6792 5.05159 24.721L10.7477 51.6837C10.749 51.6895 10.7513 51.6949 10.7529 51.7005C10.7553 51.7099 10.7582 51.7192 10.7617 51.7282C10.7644 51.735 10.7682 51.741 10.7716 51.748C10.7749 51.7549 10.779 51.7627 10.7835 51.7696C10.788 51.7766 10.7923 51.7818 10.7971 51.788C10.8018 51.7941 10.8076 51.8008 10.8132 51.8068C10.8159 51.8098 10.818 51.8131 10.8208 51.8158C10.8236 51.8185 10.8273 51.8207 10.8304 51.8234C10.8361 51.8282 10.8418 51.8327 10.8479 51.8372C10.8549 51.8425 10.8622 51.8475 10.8698 51.8521C10.8743 51.8546 10.8788 51.8566 10.8832 51.8589C10.9218 51.8787 10.9648 51.8884 11.0081 51.8871H29.5779C29.7683 51.8871 29.9563 51.9284 30.1292 52.0079C30.3021 52.0874 30.4558 52.2034 30.5797 52.3478C31.5435 53.4668 32.596 54.0471 33.7079 54.0726C33.7336 54.0732 33.7592 54.0733 33.7838 54.0733C35.3479 54.0733 36.6259 52.9708 37.2536 52.3057C37.3778 52.1742 37.5273 52.0694 37.6932 51.9974C37.8591 51.9255 38.0379 51.8879 38.2187 51.8871H56.9006H56.9056C56.925 51.8868 56.9443 51.8843 56.9631 51.8796L56.9669 51.8786C56.9842 51.8743 57.0011 51.8682 57.0171 51.8603L57.0224 51.8577C57.0391 51.8492 57.0549 51.8388 57.0693 51.8268C57.072 51.8245 57.0749 51.823 57.0776 51.8205C57.1192 51.7826 57.1469 51.7319 57.1563 51.6764C57.1563 51.6744 57.1563 51.6723 57.1572 51.6703C57.1599 51.6538 57.1608 51.6371 57.1601 51.6204C57.1601 51.6171 57.1601 51.614 57.1601 51.6107C57.1589 51.5939 57.1559 51.5773 57.1512 51.5612C57.1512 51.5594 57.1512 51.5576 57.1503 51.5559L57.1485 51.5499C57.1485 51.548 57.1475 51.5462 57.1469 51.5443L49.2561 25.5543L49.6426 25.5753C49.875 25.5891 50.0979 25.6725 50.2823 25.8146C50.4668 25.9567 50.6042 26.1509 50.6767 26.3721L59.4319 53.5764C59.482 53.7319 59.4984 53.8962 59.48 54.0585C59.4617 54.2207 59.409 54.3773 59.3254 54.5176Z" fill="#D6585B"/>
<path d="M53.4946 53.8456H39.0728C38.8368 53.8454 38.6034 53.8955 38.3882 53.9926C38.173 54.0896 37.981 54.2314 37.8249 54.4085C36.6827 55.7105 35.4609 56.3811 34.1937 56.4019C34.173 56.4019 34.1523 56.4019 34.1315 56.4019C32.3374 56.4019 30.8764 55.1309 30.1608 54.367C30.005 54.2022 29.8173 54.0708 29.609 53.9811C29.4007 53.8913 29.1763 53.8451 28.9495 53.8451H8.45903C8.18864 53.8454 7.92678 53.7505 7.71937 53.577C7.51196 53.4035 7.37223 53.1626 7.32468 52.8964L3.02404 28.9754C3.01809 28.9423 3.00567 28.9106 2.98749 28.8823C2.9693 28.8539 2.94571 28.8294 2.91806 28.8102C2.86222 28.7714 2.79324 28.7563 2.72629 28.7683C2.65934 28.7803 2.59991 28.8185 2.56106 28.8743C2.52222 28.9301 2.50715 28.9991 2.51917 29.0661L6.82032 52.9881C6.88917 53.3726 7.09115 53.7206 7.39086 53.9712C7.69057 54.2218 8.0689 54.3589 8.45955 54.3585H28.9495C29.1062 54.3583 29.2612 54.3901 29.4052 54.452C29.5491 54.5139 29.6789 54.6045 29.7866 54.7183C30.5592 55.5431 32.1441 56.9152 34.1314 56.9152H34.2021C35.6201 56.892 36.9687 56.1626 38.2103 54.7473C38.3182 54.625 38.451 54.5272 38.5997 54.4602C38.7484 54.3932 38.9097 54.3587 39.0728 54.359H53.4946C53.5626 54.359 53.6278 54.332 53.6759 54.2839C53.724 54.2358 53.751 54.1706 53.751 54.1026C53.751 54.0346 53.724 53.9693 53.6759 53.9213C53.6278 53.8732 53.5626 53.8461 53.4946 53.8461V53.8456Z" fill="#D6585B"/>
<path d="M31.1675 24.8408C31.6781 25.077 32.2326 25.2036 32.7951 25.2126C33.1673 25.2145 33.5366 25.1466 33.8838 25.0123C35.1937 24.5005 36.055 23.0841 36.3088 21.024C36.5556 19.021 36.2009 16.6308 35.3102 14.2932C34.0702 11.0398 31.9792 8.4335 29.8529 7.49146C28.886 7.06299 27.9466 7.00428 27.1368 7.32005C25.8268 7.83184 24.9655 9.24825 24.7118 11.3084C24.465 13.3113 24.8196 15.7017 25.7104 18.0391C26.9502 21.2923 29.0413 23.8986 31.1675 24.8408ZM27.3233 7.79774C28.0131 7.52851 28.7938 7.58299 29.6452 7.9603C31.651 8.84902 33.638 11.3457 34.8309 14.4758C36.5896 19.0912 36.081 23.6032 33.6973 24.5344C33.0078 24.8036 32.2266 24.7494 31.3752 24.3719C29.3696 23.4832 27.3825 20.9866 26.1896 17.8564C24.4308 13.2413 24.9395 8.72902 27.3233 7.79774Z" fill="#D6585B"/>
<path d="M39.8148 17.7401C39.9096 18.8865 40.9833 19.7657 42.2735 19.7657C42.2953 19.7657 42.3174 19.7657 42.3393 19.7648L50.7139 19.5725C51.0789 19.5682 51.4392 19.4897 51.7729 19.3417C52.1065 19.1937 52.4066 18.9794 52.6548 18.7117C52.8507 18.501 53.0011 18.2522 53.0964 17.9807C53.1918 17.7092 53.2301 17.421 53.2089 17.1341L53.1272 16.1437C53.1011 15.8571 53.0161 15.579 52.8775 15.3268C52.739 15.0746 52.5498 14.8537 52.322 14.6779C52.0333 14.4544 51.7022 14.2921 51.3488 14.2009C50.9954 14.1096 50.6271 14.0913 50.2663 14.147L41.9739 15.3293C40.6662 15.5157 39.7187 16.5746 39.8148 17.7401ZM50.3386 14.6542C50.4491 14.6384 50.5604 14.6305 50.672 14.6305C51.1532 14.6253 51.622 14.7831 52.0021 15.0783C52.175 15.2107 52.3188 15.3774 52.4245 15.5678C52.5302 15.7583 52.5954 15.9685 52.6162 16.1853L52.6979 17.1758C52.7129 17.3931 52.683 17.6111 52.61 17.8162C52.537 18.0213 52.4225 18.2092 52.2736 18.3682C52.0723 18.5839 51.8291 18.7564 51.5589 18.8753C51.2887 18.9941 50.9972 19.0567 50.7021 19.0593L42.3275 19.2516C42.3093 19.2516 42.2915 19.2516 42.2735 19.2516C41.249 19.2516 40.3985 18.577 40.326 17.697C40.252 16.8015 41.0074 15.9841 42.0457 15.8359L50.3386 14.6542Z" fill="#D6585B"/>
<path d="M39.8727 9.4854C40.2513 9.48435 40.6256 9.40468 40.9719 9.25142L48.6423 5.88412C48.9781 5.74115 49.2812 5.53135 49.5334 5.26749C49.7855 5.00362 49.9813 4.6912 50.1089 4.34925C50.2099 4.07976 50.2541 3.79234 50.2389 3.50496C50.2237 3.21759 50.1493 2.93645 50.0205 2.67913L49.5679 1.79451C49.4345 1.53949 49.25 1.31473 49.0258 1.13428C48.8016 0.953834 48.5426 0.821583 48.2649 0.745799C47.913 0.649367 47.5451 0.625529 47.1837 0.675736C46.8222 0.725943 46.4747 0.849145 46.1624 1.03785L38.9444 5.28964C37.8074 5.95951 37.3341 7.29989 37.8669 8.34091C38.2402 9.07091 39.0223 9.48552 39.8727 9.4854ZM39.2047 5.73156L46.4226 1.47977C46.7685 1.27352 47.1632 1.16336 47.566 1.16067C47.754 1.16022 47.9412 1.18642 48.1219 1.23849C48.3322 1.29504 48.5287 1.39437 48.699 1.53027C48.8692 1.66618 49.0096 1.83574 49.1114 2.02836L49.5639 2.91297C49.6607 3.10814 49.7161 3.32117 49.7268 3.53875C49.7375 3.75632 49.7031 3.97375 49.626 4.17746C49.5219 4.45359 49.3627 4.70567 49.1582 4.91838C48.9536 5.13108 48.708 5.29997 48.4361 5.41476L40.7657 8.78194C39.8052 9.20335 38.7324 8.90694 38.3233 8.10719C37.9142 7.30745 38.3011 6.26386 39.2047 5.73156Z" fill="#D6585B"/>
</g>
<defs>
<clipPath id="clip0_19_389">
<rect width="60" height="60" fill="white"/>
</clipPath>
</defs>
</svg>
