<svg width="100" height="100" viewBox="0 0 100 100" fill="none" xmlns="http://www.w3.org/2000/svg">
<g clip-path="url(#clip0_19_99)">
<path d="M81.2479 11.2319C79.2173 15.6081 78.7625 65.6993 78.7283 70.4882C69.0022 69.7723 59.62 68.6195 51.118 67.2851C41.6947 59.326 31.5339 57.8077 25.7462 62.2566C19.2232 60.641 14.6727 59.1703 12.8927 58.2251C11.3225 51.397 13.2442 17.1486 14.0152 10.118C81.5905 11.2353 81.2257 11.2096 81.2479 11.2319Z" fill="#FFE6E7"/>
<path d="M95.6787 56.0303C91.3555 61.6523 85.9894 66.8108 78.7287 70.4888C76.1361 51.8773 77.0261 24.3204 78.7287 14.7615C79.2257 10.5674 89.2743 11.1631 97.4486 10.8192C96.145 27.0579 95.5836 45.7802 95.6787 56.0303Z" fill="#FFA3A6"/>
<path d="M98.8784 17.4624C94.773 16.3066 89.4841 15.0901 83.0059 15.0901L80.7412 10.1186L83.9406 7.82608C90.9645 8.28676 95.4748 9.0552 99.5669 10.8192C98.8953 12.3474 98.7599 15.934 98.8784 17.4624Z" fill="#FF8C8F"/>
<path d="M10.1025 12.5596C21.5422 14.8591 52.0176 14.0186 78.7283 14.7615C80.0204 14.7974 81.5588 15.0211 83.0053 15.0901C82.8675 12.6441 83.4709 9.43283 83.94 7.82608C53.8745 5.03196 34.1699 3.93304 11.1984 5.80733C10.7799 6.83336 9.70285 11.2861 10.1025 12.5596Z" fill="#FFBBBC"/>
<path d="M0.884411 19.5322C0.884411 19.5322 -1.23946 27.434 3.7326 28.3182C9.97573 29.4283 8.88893 19.6056 8.88893 19.6056C7.45023 17.7778 4.4846 18.1896 0.884411 19.5322Z" fill="#FFA7A9"/>
<path d="M8.88871 19.6055C8.88871 19.6055 6.66038 28.1959 11.895 29.1268C18.468 30.2956 17.2869 19.8508 17.2869 19.8508C15.4024 18.7545 11.5252 18.4313 8.88871 19.6055Z" fill="#FFBEC0"/>
<path d="M17.2873 19.8508C17.2873 19.8508 14.8472 28.6149 20.1342 29.5551C26.7729 30.7355 25.903 20.2016 25.903 20.2016C23.879 18.6747 19.6627 18.6377 17.2873 19.8508Z" fill="#FFA7A9"/>
<path d="M25.9029 20.2016C25.9029 20.2016 23.433 29.076 28.7729 30.0257C35.478 31.218 34.7924 20.59 34.7924 20.59C31.5841 19.495 28.5573 19.1141 25.9029 20.2016Z" fill="#FFBEC0"/>
<path d="M34.7922 20.5901C34.7922 20.5901 32.188 29.9785 37.6346 30.9473C44.4738 32.1634 43.9216 21.0663 43.9216 21.0663C41.5654 19.6812 37.701 19.4712 34.7922 20.5901Z" fill="#FFA7A9"/>
<path d="M43.9218 21.0663C43.9218 21.0663 41.2655 30.6427 46.8211 31.6307C53.797 32.8713 52.9494 21.6448 52.9494 21.6448C51.0515 19.8419 46.6636 19.8992 43.9218 21.0663Z" fill="#FFBEC0"/>
<path d="M52.9493 21.6449C52.9493 21.6449 50.2579 31.3446 55.9246 32.3522C63.04 33.6175 62.5393 22.2297 62.5393 22.2297C59.3235 20.8455 56.1275 20.6926 52.9493 21.6449Z" fill="#FFA7A9"/>
<path d="M62.5391 22.2297C62.5391 22.2297 59.8012 32.0957 65.5813 33.1235C72.839 34.414 72.0707 22.835 72.0707 22.835C69.8089 21.6386 65.5553 21.2449 62.5391 22.2297Z" fill="#FFBEC0"/>
<path d="M18.0549 12.3801C16.3833 14.9499 13.2416 17.3482 8.89117 19.6051C5.9037 19.5426 3.22334 19.5171 0.884277 19.5322L10.1026 12.5596C12.5863 12.4603 15.2442 12.4017 18.0549 12.3801Z" fill="#FFBEC0"/>
<path d="M26.5573 12.4119C25.2289 15.4504 21.7163 17.7953 17.288 19.8495C14.2743 19.7427 11.4683 19.6598 8.89111 19.6049L18.0549 12.3799C20.753 12.3585 23.5923 12.3712 26.5573 12.4119Z" fill="#FFA8A9"/>
<path d="M35.0291 12.5979C33.5852 15.3879 30.33 17.8881 25.9032 20.2012C22.8731 20.0647 19.997 19.9475 17.2881 19.8495C26.6052 12.3734 26.5369 12.4119 26.5587 12.4119C29.2819 12.4502 32.1093 12.5137 35.0291 12.5979Z" fill="#FFBEC0"/>
<path d="M43.9216 12.9076C42.729 15.7032 39.4026 18.2443 34.7684 20.6294C31.6886 20.4713 28.7294 20.3288 25.9033 20.2014L35.0292 12.5981C37.9075 12.6807 40.8759 12.7852 43.9216 12.9076Z" fill="#FFA8A9"/>
<path d="M52.3123 13.2796C51.3494 15.8083 48.4348 18.4275 43.9072 21.1212C40.7573 20.9454 37.7071 20.781 34.7681 20.6294L43.9212 12.9076C55.3728 13.3713 51.4841 13.2796 52.3123 13.2796Z" fill="#FFBEC0"/>
<path d="M60.3821 13.6912C59.4997 16.9968 56.5862 19.4693 52.949 21.6451C49.8536 21.4604 46.8378 21.2856 43.9072 21.1212L52.3125 13.2796C54.9598 13.407 57.652 13.5447 60.3821 13.6912Z" fill="#FFA8A9"/>
<path d="M69.3419 14.1957C68.7817 17.8749 66.1342 20.3301 62.5394 22.2299C59.2686 22.0259 56.0701 21.8311 52.9487 21.6451L60.3818 13.6912C61.9241 13.774 69.1178 14.1739 69.3419 14.1957Z" fill="#FFBEC0"/>
<path d="M78.7287 14.7615L72.071 22.835C68.8346 22.6261 65.6551 22.4235 62.5396 22.2297L69.342 14.1955C72.4374 14.3755 75.5693 14.5654 78.7287 14.7615Z" fill="#FFA8A9"/>
<path d="M88.1589 92.3909C89.2582 92.3909 90.1493 91.4997 90.1493 90.4005C90.1493 89.3012 89.2582 88.41 88.1589 88.41C87.0596 88.41 86.1685 89.3012 86.1685 90.4005C86.1685 91.4997 87.0596 92.3909 88.1589 92.3909Z" fill="#FF9396"/>
<path d="M64.4638 95.1233C65.6196 95.1233 66.5565 94.1864 66.5565 93.0306C66.5565 91.8748 65.6196 90.9379 64.4638 90.9379C63.308 90.9379 62.3711 91.8748 62.3711 93.0306C62.3711 94.1864 63.308 95.1233 64.4638 95.1233Z" fill="#FF9396"/>
<path d="M50.227 84.4099C51.3828 84.4099 52.3197 83.473 52.3197 82.3172C52.3197 81.1614 51.3828 80.2245 50.227 80.2245C49.0712 80.2245 48.1343 81.1614 48.1343 82.3172C48.1343 83.473 49.0712 84.4099 50.227 84.4099Z" fill="#FF9396"/>
<path d="M95.7143 81.0822C96.8701 81.0822 97.807 80.1453 97.807 78.9895C97.807 77.8337 96.8701 76.8968 95.7143 76.8968C94.5585 76.8968 93.6216 77.8337 93.6216 78.9895C93.6216 80.1453 94.5585 81.0822 95.7143 81.0822Z" fill="#FF9396"/>
<path d="M84.6112 65.2023C83.6141 72.8153 77.6491 78.2029 71.284 77.2383C69.5387 76.9744 67.9447 76.2585 66.5713 75.2009C73.0326 76.1199 75.6622 55.2167 70.6676 49.9524C78.5977 47.6687 85.8795 55.5006 84.6112 65.2023Z" fill="#EF7D80"/>
<path d="M81.151 65.0336C80.0696 72.3915 73.6677 79.3254 66.5715 75.2009H66.5694C62.9359 72.4066 60.8423 67.231 61.5647 61.7094C62.3348 55.8287 66.0698 51.2739 70.6657 49.9524H70.6679C77.565 49.4334 82.1826 58.0132 81.151 65.0336Z" fill="#FF9396"/>
<path d="M76.8836 64.2068C77.4688 58.9666 74.9901 54.3888 71.3473 53.982C67.7045 53.5752 64.277 57.4935 63.6919 62.7337C63.1067 67.9739 65.5854 72.5517 69.2282 72.9585C72.871 73.3653 76.2984 69.447 76.8836 64.2068Z" fill="#FFE6E7"/>
<path d="M70.5449 57.5609C70.4333 58.1868 70.2445 61.3806 73.033 63.0514C69.5279 65.0027 68.6393 68.2674 68.5054 68.8899C68.6153 68.2741 69.0426 64.6542 66.2539 62.9835C69.757 61.0443 70.4091 58.1946 70.5449 57.5609Z" fill="#E9E9FD"/>
<path d="M52.9805 44.3205C52.9112 51.0641 52.5434 60.8551 51.1183 67.2851C40.7241 65.6472 33.3771 64.0898 25.7465 62.2566C24.3407 53.8779 22.8354 41.165 25.6773 36.7983C28.5294 32.4119 39.2367 33.885 44.4201 34.8301C49.4356 35.7407 53.0302 39.7224 52.9805 44.3205Z" fill="#FFACAE"/>
<path d="M99.7384 10.4234C95.8101 8.73144 91.3891 7.88255 83.9701 7.3957C53.7248 4.58493 34.1584 3.50093 11.1644 5.37846C11.0022 5.39187 10.8612 5.49503 10.7994 5.64556C10.4581 6.47932 9.37386 10.6524 9.62323 12.3822C2.10621 18.0687 0.699525 19.1315 0.616041 19.1983C0.538396 19.2602 0.486273 19.3497 0.467673 19.4222C0.415117 19.6181 -0.802106 24.2504 0.913858 26.9509C1.53501 27.9287 2.45853 28.5325 3.65823 28.7458C5.82752 29.131 7.44226 28.3335 8.39995 26.4346C9.02976 28.3554 10.3348 29.427 12.3256 29.6249C12.0014 37.0587 11.4188 53.7438 12.4716 58.324C12.4998 58.4462 12.5796 58.5502 12.6905 58.609C17.4303 61.1254 33.8059 64.6017 38.778 65.5741C42.5983 66.3214 51.5627 67.9456 61.9186 69.2467C62.1916 70.0321 62.5238 70.788 62.9124 71.5032C61.9169 73.2899 60.0727 73.2218 57.9395 73.1376C54.7719 73.0133 50.8455 72.864 49.6666 79.8603C47.8533 80.271 47.0982 82.4394 48.2499 83.8895C49.6367 85.6349 52.4789 84.8505 52.7362 82.6068C52.8941 81.2308 51.92 79.9933 50.5503 79.8172C51.6254 73.7573 54.6778 73.8741 57.9055 74.0019C59.9766 74.0828 62.112 74.1654 63.4055 72.3458C65.0897 74.9907 67.4895 76.7863 70.2538 77.4723C68.0114 82.7787 71.4559 88.0986 66.3521 91.3544C64.684 89.4864 61.632 90.9353 61.9625 93.3721C62.136 94.651 63.229 95.5581 64.4595 95.5581C66.242 95.5581 67.4759 93.7673 66.8061 92.0917C72.4744 88.4959 68.8348 82.7792 71.1204 77.6505C73.6918 78.0811 76.2281 77.4881 78.4037 76.1467C80.5416 81.9625 86.2873 80.4118 86.6128 88.5387C86.034 89.0219 85.7414 89.6947 85.7366 90.3859C85.7278 91.7502 86.8336 92.8241 88.1598 92.8241C89.485 92.8241 90.574 91.7593 90.5826 90.4182C90.5932 88.7801 89.0135 87.6113 87.455 88.0828C86.926 79.8689 81.0432 81.2131 79.1475 75.6482C81.0561 74.266 82.6555 72.2734 83.7077 69.9652C87.4515 72.2336 93.875 67.2933 95.4147 76.4854C93.21 76.7484 92.3896 79.5553 94.1309 80.9577C95.8622 82.3516 98.4684 80.9741 98.2257 78.7207C98.1091 77.6391 97.3275 76.78 96.2978 76.536C94.682 66.3434 87.2097 71.2848 84.0471 69.155C84.2625 68.6014 84.4485 68.0345 84.6014 67.4624C88.76 64.5325 92.4975 60.8789 96.022 56.2953C96.0811 56.2187 96.1127 56.1244 96.1118 56.0277C96.0331 47.6439 96.4007 32.5365 97.3956 17.5076C98.8315 17.8872 98.7643 17.8974 98.8802 17.8974C99.1313 17.8974 99.3311 17.6835 99.3114 17.4313C99.1972 15.9625 99.3205 12.4573 99.964 10.9946C100.06 10.7749 99.959 10.5183 99.7384 10.4234ZM51.5272 81.2866C52.0982 82.0053 51.9786 83.0484 51.2599 83.619C50.5431 84.1884 49.4966 84.0684 48.9275 83.3514C48.3583 82.6349 48.4783 81.5885 49.1951 81.0193C49.9086 80.4522 50.9558 80.5671 51.5272 81.2866ZM65.7855 94.038C65.2257 94.773 64.1833 94.9049 63.459 94.3536C62.2923 93.4664 62.7712 91.5872 64.241 91.3875C65.6979 91.1929 66.6826 92.8587 65.7855 94.038ZM88.1592 88.8443C89.5464 88.8443 90.2411 90.5371 89.2538 91.5112C88.6424 92.1144 87.654 92.1082 87.0503 91.4967C86.0738 90.5068 86.7912 88.8443 88.1592 88.8443ZM97.3651 78.8137C97.5226 80.2809 95.8174 81.2057 94.6731 80.2842C93.9572 79.7071 93.8473 78.6634 94.4218 77.9501C95.3524 76.7949 97.2081 77.3566 97.3651 78.8137ZM11.5083 6.21827C34.1939 4.38725 53.5964 5.44983 83.3878 8.21043C82.9791 9.79662 82.5134 12.4173 82.5567 14.6326C78.9286 14.3872 85.3512 14.6947 69.3826 13.7664C52.053 12.759 27.6843 11.4609 10.4592 12.1154C10.3344 10.7887 11.0617 7.50514 11.5083 6.21827ZM69.2645 31.8368C68.3209 32.6816 67.1411 32.9639 65.6568 32.6998C63.5974 32.3334 62.4807 30.6598 62.3384 27.726C62.2378 25.6268 62.6803 23.4941 62.8722 22.686C65.7472 22.8651 68.6765 23.0518 71.6544 23.2438C71.6912 24.6598 71.6445 29.7065 69.2645 31.8368ZM18.2072 12.8137C20.4348 12.7973 22.7826 12.8029 25.3461 12.8321C23.5685 14.258 24.1094 13.8207 23.9963 13.915C23.992 13.9187 23.9881 13.9222 23.984 13.9261C22.5968 15.0388 20.4366 16.7721 17.1428 19.4146C15.8683 19.3702 12.1312 19.2504 10.1157 19.1983C11.1742 18.3607 13.4211 16.5841 18.2072 12.8137ZM62.3503 21.7865C61.2332 21.718 56.0511 21.3992 53.8931 21.2698C59.1349 15.6591 59.9111 14.8279 60.5595 14.1358C62.3133 14.2312 66.6147 14.4713 68.4539 14.5773L62.3503 21.7865ZM52.7706 21.2041C51.452 21.1271 46.9728 20.8619 44.9525 20.7475C46.3793 19.4189 51.7411 14.3956 52.4702 13.7225C54.9049 13.8404 57.1933 13.9563 59.4314 14.0753C58.6552 14.9056 53.4588 20.4674 52.7706 21.2041ZM43.7509 20.6822C42.2028 20.5955 37.9338 20.3647 35.888 20.2561C36.8862 19.4118 39.1093 17.5325 44.071 13.3486C48.2136 13.5158 50.259 13.6075 51.2699 13.6572C50.3128 14.5483 44.629 19.8748 43.7509 20.6822ZM34.6263 20.1908C32.0618 20.0595 29.5145 19.9354 27.0361 19.8214C27.5641 19.3817 35.1583 13.0564 35.1808 13.0376C37.6131 13.1076 40.1671 13.195 42.7897 13.2975C36.406 18.681 34.9364 19.9287 34.6263 20.1908ZM25.754 19.7632C23.2331 19.6503 20.7865 19.5493 18.465 19.4626C18.6306 19.3296 26.5809 12.9513 26.7093 12.8475C27.9979 12.8546 31.6273 12.9415 33.8723 13.0012C17.0989 26.9744 32.6642 14.0074 25.754 19.7632ZM17.2782 25.6685C16.9385 23.5669 17.4205 21.1604 17.6228 20.2977C20.0726 20.3868 22.6692 20.4921 25.3565 20.6117C25.1402 21.5655 24.7516 23.6649 24.9596 25.6921C24.1609 28.3915 22.5648 29.5505 20.2103 29.1312C18.4265 28.8137 17.5402 27.436 17.2782 25.6685ZM25.8297 25.7021C25.6803 23.9841 25.8414 22.3367 26.2363 20.6511C28.8412 20.7696 31.5278 20.8991 34.2378 21.0373C34.0218 21.9965 33.6396 24.0432 33.7631 26.047C32.9077 28.8334 31.2566 30.03 28.8481 29.6027C27.1014 29.2921 26.086 27.9799 25.8297 25.7021ZM34.631 26.0844C34.5382 24.4141 34.7333 22.7103 35.115 21.0819C36.4488 21.1517 41.1159 21.402 43.3657 21.5274C43.1457 22.5035 42.7657 24.5359 42.8739 26.5278C41.9759 29.6284 40.237 30.973 37.7115 30.5242C35.8489 30.1927 34.8125 28.6988 34.631 26.0844ZM44.2427 21.5741C45.7272 21.6552 51.4963 21.9963 52.4047 22.0493C52.1735 23.0496 51.7329 25.3383 51.926 27.5592C51.0572 30.417 49.3668 31.6452 46.8971 31.2077C44.9659 30.8627 43.904 29.2992 43.7414 26.581C43.7414 26.5726 43.7411 26.5641 43.7405 26.5557C43.6207 24.5233 44.0394 22.4406 44.2427 21.5741ZM52.7948 27.5675C52.5844 25.3497 53.0777 22.9633 53.2826 22.0999C54.7009 22.1838 60.0647 22.5124 61.9954 22.6313C61.7808 23.5602 61.3835 25.6065 61.4716 27.692C60.523 30.9782 58.6837 32.4046 56.0001 31.9277C53.8397 31.5433 53.0122 29.7422 52.7948 27.5675ZM71.8781 22.3912C69.0147 22.2065 66.1958 22.0266 63.4267 21.8538L69.5327 14.6422C72.0911 14.791 74.824 14.9553 77.8556 15.1428L71.8781 22.3912ZM10.2558 12.9885C12.2718 12.9095 14.5073 12.8548 16.7916 12.8273C10.0352 18.1513 9.36651 18.6898 8.75357 19.1721C8.22433 19.165 5.76026 19.0999 2.18039 19.0971L10.2558 12.9885ZM3.80963 27.8941C2.84545 27.7225 2.13735 27.2625 1.64467 26.488C0.369265 24.4827 0.993665 21.0263 1.22768 19.9655C3.90804 19.9525 6.03342 19.9823 8.35064 20.0303C8.15858 20.9608 7.83113 22.9644 8.06883 24.9057C7.36895 27.2988 5.97545 28.2784 3.80963 27.8941ZM8.93849 24.8927C8.93849 24.8925 8.93849 24.8921 8.93849 24.8917C8.93827 24.8908 8.93827 24.8901 8.93806 24.8893C8.68003 22.9408 9.06307 20.8349 9.23349 20.0429C10.6214 20.0688 14.9331 20.2051 16.7408 20.2665C16.5109 21.2837 16.09 23.5886 16.4103 25.7122C15.6838 28.0078 14.2843 29.1206 11.972 28.7032C10.253 28.3969 9.23241 27.115 8.93849 24.8927ZM50.7819 66.7959C45.6001 65.974 41.2165 65.1738 37.3644 64.3978C36.6651 56.8589 36.6913 48.818 36.9171 40.9805C36.924 40.7417 36.7361 40.5425 36.4973 40.5356C36.2659 40.5267 36.0595 40.7168 36.0524 40.9554C35.8467 48.0913 35.7844 57.1087 36.478 64.2176C32.5785 63.4193 29.2247 62.6472 26.1262 61.9045C23.9918 49.0583 23.96 40.2319 26.0402 37.036C27.9562 34.0907 34.4565 33.4591 44.3431 35.2575C48.9035 36.0854 52.5483 39.6646 52.5483 44.3179C52.4782 51.1199 52.1131 60.4738 50.7819 66.7959ZM70.9494 76.7421C65.0821 75.6043 61.0645 68.8869 61.9937 61.7678C62.5843 57.2605 65.009 53.3701 68.4795 51.3604C70.0509 50.4503 71.7327 49.9914 73.4165 49.9914C79.9038 49.9914 84.7975 56.5946 84.3191 64.0277C83.8262 71.6849 77.8052 78.1341 70.9494 76.7421ZM95.2447 55.8863C92.0308 60.0462 88.6395 63.4215 84.9091 66.1732C86.249 59.3777 83.0277 52.258 77.3735 49.92C77.3733 49.92 77.3731 49.92 77.3729 49.9198C67.8864 46.0133 58.4173 56.9599 61.6312 68.3375C58.279 67.9127 54.9237 67.44 51.6369 66.9287C52.9752 60.5365 53.3429 51.1521 53.413 44.327C53.4647 39.526 49.7152 35.3538 44.4975 34.4064C37.2452 33.0871 28.0302 32.3905 25.3145 36.5643C22.5427 40.8237 23.6953 52.4299 25.2122 61.6793C19.5639 60.2601 15.1617 58.8805 13.2725 57.936C12.5912 54.5704 12.5603 44.0655 13.1905 29.6433C14.7594 29.5436 15.9793 28.6913 16.7637 27.133C17.5021 29.1472 19.0664 30.0828 21.1362 30.0828C22.9789 30.0828 24.3839 29.1329 25.2758 27.2882C25.8302 29.0652 26.9922 30.1516 28.6961 30.4546C31.1169 30.8861 32.9148 29.9225 34.0125 27.755C34.6286 30.245 36.2518 31.4765 38.6491 31.4765C40.6252 31.4763 42.1441 30.4061 43.1243 28.3296C43.6356 30.4442 44.866 31.7239 46.7448 32.0594C49.2396 32.5025 51.0957 31.5003 52.2113 29.214C52.8826 31.6545 54.5391 32.8849 56.9913 32.8849C59.0765 32.8849 60.6769 31.751 61.7054 29.5501C62.2153 31.8239 63.5076 33.1964 65.5047 33.5515C67.1307 33.8407 68.6315 33.5649 69.8422 32.4805C72.6898 29.9299 72.5624 24.0771 72.512 22.9819L78.0466 16.2707C76.8962 24.1198 76.7076 36.2708 76.6771 40.0049C76.6752 40.2436 76.8672 40.4391 77.106 40.4411C77.2861 40.4411 77.5398 40.3042 77.5422 40.0122C77.574 36.0973 77.7801 22.8941 79.0893 15.2127C80.106 15.2655 82.4619 15.5248 83.0068 15.5248C87.423 15.5248 91.7752 16.0891 96.5426 17.2873C95.5441 32.3029 95.1714 47.4261 95.2447 55.8863ZM98.4167 16.8861C93.4559 15.5177 88.6065 14.7044 83.4235 14.6633C83.371 12.4569 83.8567 9.80462 84.2631 8.28288C91.1257 8.74983 95.3392 9.5399 99.0158 11.0577C98.5118 12.6003 98.3676 15.2659 98.4167 16.8861Z" fill="#D6585B"/>
<path d="M78.6542 54.3111C78.4526 54.4396 78.3935 54.7069 78.522 54.9085C82.2479 60.753 81.408 68.721 76.569 73.4421C76.2904 73.7138 76.4866 74.1844 76.8709 74.1844C76.9799 74.1844 77.0889 74.1435 77.1729 74.0615C82.2991 69.0603 83.1926 60.6265 79.2513 54.4435C79.123 54.2419 78.8555 54.1831 78.6542 54.3111Z" fill="#D6585B"/>
<path d="M71.5677 53.582C70.0313 53.3495 68.5437 53.8331 67.277 54.786C65.1892 56.3575 63.6923 59.2118 63.2727 62.4209C62.5599 67.8703 65.112 72.7786 68.9616 73.3619C70.5134 73.597 71.9921 73.1054 73.2512 72.1581C75.3394 70.5864 76.8367 67.7321 77.2568 64.523C77.9692 59.0734 75.4175 54.1653 71.5677 53.582ZM76.3988 64.4105C76.0086 67.3941 74.6374 70.0318 72.7311 71.4666C71.5798 72.3335 70.3209 72.6938 69.0913 72.5065C65.704 71.993 63.4786 67.5191 64.1307 62.5332C64.5207 59.5496 65.8915 56.9121 67.7971 55.4775C68.8577 54.6794 70.1154 54.2365 71.438 54.4374C74.8255 54.9506 77.0509 59.4246 76.3988 64.4105Z" fill="#D6585B"/>
<path d="M73.2553 62.6824C70.4565 61.0054 70.9647 57.6721 70.9708 57.639C71.0121 57.4067 70.8598 57.184 70.6284 57.1385C70.395 57.094 70.1716 57.2417 70.1219 57.4725C69.8606 58.6919 68.9832 60.9805 66.0441 62.6072C65.7532 62.7683 65.7452 63.1853 66.0314 63.3568C68.7312 64.9744 68.1072 68.6602 68.0793 68.8161C68.0378 69.0482 68.1901 69.2712 68.4217 69.3164C68.6486 69.3625 68.8778 69.2167 68.928 68.9831C69.0067 68.6169 69.797 65.35 73.2432 63.4314C73.5337 63.2701 73.5406 62.8535 73.2553 62.6824ZM68.9388 66.5789C68.7669 65.3939 68.2798 64.0085 67.0509 63.0151C68.6577 61.9934 69.6257 60.7837 70.2092 59.6984C70.4502 60.8164 71.0229 62.0825 72.2338 63.0289C70.5707 64.1045 69.5526 65.4474 68.9388 66.5789Z" fill="#D6585B"/>
</g>
<defs>
<clipPath id="clip0_19_99">
<rect width="100" height="100" fill="white"/>
</clipPath>
</defs>
</svg>
